<svg width="1435pt" height="1155pt" xmlns="http://www.w3.org/2000/svg" xmlns:xlink="http://www.w3.org/1999/xlink" xmlns:ev="http://www.w3.org/2001/xml-events" style="overflow: hidden; width: 701.25px; height: 564.422px;"><g id="viewport-20260110160825028" class="svg-pan-zoom_viewport" transform="matrix(0.3884041682332868,0,0,0.3884041682332868,52.88758815868967,24.224200370319476)" style="transform: matrix(0.388404, 0, 0, 0.388404, 52.8876, 24.2242);">
<g id="graph0" class="graph" transform="scale(1 1) rotate(0) translate(4 1151.42)">
<title>%3</title>

<g id="node1" class="node">
<title>MICA</title>
<ellipse fill="lightgrey" stroke="black" cx="1066.07" cy="-449.86" rx="36.29" ry="18"></ellipse>
<text text-anchor="middle" x="1066.07" y="-446.16" font-family="Times,serif" font-size="14.00">MICA</text>
</g>

<g id="node2" class="node">
<title>MICB</title>
<ellipse fill="lightgrey" stroke="black" cx="969.18" cy="-293.39" rx="37.09" ry="18"></ellipse>
<text text-anchor="middle" x="969.18" y="-289.69" font-family="Times,serif" font-size="14.00">MICB</text>
</g>

<g id="edge1" class="edge">
<title>MICA-&gt;MICB</title>
<path fill="none" stroke="black" d="M1060.03,-432.05C1046.18,-404.08 1013.07,-349.94 990.76,-318.19"></path>
<polygon fill="black" stroke="black" points="993.46,-315.94 984.78,-309.86 987.77,-320.03 993.46,-315.94"></polygon>
<text text-anchor="middle" x="1009.4" y="-363.92" font-family="Times,serif" font-size="14.00">bind</text>
</g>

<g id="edge7" class="edge">
<title>MICA-&gt;MICB</title>
<path fill="none" stroke="black" d="M1050.48,-433.4C1030.58,-406.43 997.17,-352.77 979.88,-320.24"></path>
<polygon fill="black" stroke="black" points="982.95,-318.56 975.26,-311.28 976.73,-321.77 982.95,-318.56"></polygon>
<text text-anchor="middle" x="975.18" y="-380.62" font-family="Times,serif" font-size="14.00">association</text>
</g>

<g id="node3" class="node">
<title>CD4</title>
<ellipse fill="lightgrey" stroke="black" cx="645.31" cy="-132.12" rx="30.59" ry="18"></ellipse>
<text text-anchor="middle" x="645.31" y="-128.42" font-family="Times,serif" font-size="14.00">CD4</text>
</g>

<g id="edge49" class="edge">
<title>MICA-&gt;CD4</title>
<path fill="none" stroke="black" d="M1046.06,-434.75C977.35,-382.87 751.01,-211.94 672.45,-152.62"></path>
<polygon fill="black" stroke="black" points="674.56,-149.82 664.47,-146.59 670.34,-155.41 674.56,-149.82"></polygon>
<text text-anchor="middle" x="819.25" y="-297.48" font-family="Times,serif" font-size="14.00">association</text>
</g>

<g id="node6" class="node">
<title>HLA-B</title>
<ellipse fill="lightgrey" stroke="black" cx="822.32" cy="-182.48" rx="40.09" ry="18"></ellipse>
<text text-anchor="middle" x="822.32" y="-178.78" font-family="Times,serif" font-size="14.00">HLA-B</text>
</g>

<g id="edge62" class="edge">
<title>MICA-&gt;HLA-B</title>
<path fill="none" stroke="black" d="M1054.73,-432.47C1017.93,-385.81 902.16,-258.39 849.16,-205.68"></path>
<polygon fill="black" stroke="black" points="851.4,-202.97 841.81,-198.46 846.49,-207.97 851.4,-202.97"></polygon>
<text text-anchor="middle" x="991.94" y="-322.88" font-family="Times,serif" font-size="14.00">association</text>
</g>

<g id="edge63" class="edge">
<title>MICA-&gt;HLA-B</title>
<path fill="none" stroke="black" d="M1047.04,-434.33C1000.98,-389.85 884.58,-262.35 839.96,-207.72"></path>
<polygon fill="black" stroke="black" points="842.67,-205.51 833.68,-199.91 837.22,-209.89 842.67,-205.51"></polygon>
<text text-anchor="middle" x="927.5" y="-324.82" font-family="Times,serif" font-size="14.00">bind</text>
</g>

<g id="node7" class="node">
<title>IFNG</title>
<ellipse fill="lightgrey" stroke="black" cx="106.84" cy="-722.79" rx="36" ry="18"></ellipse>
<text text-anchor="middle" x="106.84" y="-719.09" font-family="Times,serif" font-size="14.00">IFNG</text>
</g>

<g id="edge65" class="edge">
<title>MICA-&gt;IFNG</title>
<path fill="none" stroke="black" d="M1034.43,-458.87C891.92,-499.41 309.7,-665.07 148.43,-710.95"></path>
<polygon fill="black" stroke="black" points="147.08,-707.7 138.42,-713.8 149,-714.43 147.08,-707.7"></polygon>
<text text-anchor="middle" x="551.43" y="-588.71" font-family="Times,serif" font-size="14.00">association</text>
</g>

<g id="edge2" class="edge">
<title>MICB-&gt;CD4</title>
<path fill="none" stroke="black" d="M943.23,-280.47C884.69,-251.32 742.48,-180.51 678.03,-148.41"></path>
<polygon fill="black" stroke="black" points="679.25,-145.11 668.74,-143.79 676.13,-151.38 679.25,-145.11"></polygon>
<text text-anchor="middle" x="770.63" y="-218.24" font-family="Times,serif" font-size="14.00">association</text>
</g>

<g id="node4" class="node">
<title>ACE2</title>
<ellipse fill="lightgrey" stroke="black" cx="173.32" cy="-367.14" rx="36.29" ry="18"></ellipse>
<text text-anchor="middle" x="173.32" y="-363.44" font-family="Times,serif" font-size="14.00">ACE2</text>
</g>

<g id="edge3" class="edge">
<title>CD4-&gt;ACE2</title>
<path fill="none" stroke="black" d="M619.16,-141.54C538.07,-176.82 291.24,-299.57 204.14,-347.74"></path>
<polygon fill="black" stroke="black" points="202.29,-344.76 195.27,-352.7 205.7,-350.87 202.29,-344.76"></polygon>
<text text-anchor="middle" x="485.15" y="-248.44" font-family="Times,serif" font-size="14.00">negative_correlation</text>
</g>

<g id="node5" class="node">
<title>COVID-19</title>
<ellipse fill="lightgrey" stroke="black" cx="106.84" cy="-538.75" rx="56.59" ry="18"></ellipse>
<text text-anchor="middle" x="106.84" y="-535.05" font-family="Times,serif" font-size="14.00">COVID-19</text>
</g>

<g id="edge4" class="edge">
<title>CD4-&gt;COVID-19</title>
<path fill="none" stroke="black" d="M623.51,-145.1C537.93,-203.27 225.58,-438.96 132.9,-515.04"></path>
<polygon fill="black" stroke="black" points="130.59,-512.41 125.12,-521.49 135.05,-517.8 130.59,-512.41"></polygon>
<text text-anchor="middle" x="307.2" y="-333.87" font-family="Times,serif" font-size="14.00">positive_correlation</text>
</g>

<g id="edge5" class="edge">
<title>CD4-&gt;COVID-19</title>
<path fill="none" stroke="black" d="M629.27,-147.5C555.2,-209.98 246.04,-443.8 141.51,-516.88"></path>
<polygon fill="black" stroke="black" points="139.41,-514.07 133.19,-522.65 143.4,-519.82 139.41,-514.07"></polygon>
<text text-anchor="middle" x="458.89" y="-335.99" font-family="Times,serif" font-size="14.00">negative_correlation</text>
</g>

<g id="edge8" class="edge">
<title>CD4-&gt;IFNG</title>
<path fill="none" stroke="black" d="M628.25,-147.2C548.03,-226.87 209.59,-597.93 125.67,-697.94"></path>
<polygon fill="black" stroke="black" points="122.91,-695.79 119.21,-705.72 128.29,-700.27 122.91,-695.79"></polygon>
<text text-anchor="middle" x="336.96" y="-411.37" font-family="Times,serif" font-size="14.00">association</text>
</g>

<g id="node9" class="node">
<title>STAT3</title>
<ellipse fill="lightgrey" stroke="black" cx="173.32" cy="-894.4" rx="40.09" ry="18"></ellipse>
<text text-anchor="middle" x="173.32" y="-890.7" font-family="Times,serif" font-size="14.00">STAT3</text>
</g>

<g id="edge36" class="edge">
<title>CD4-&gt;STAT3</title>
<path fill="none" stroke="black" d="M632.44,-148.66C565.1,-246.23 255.69,-745.69 186.84,-867.57"></path>
<polygon fill="black" stroke="black" points="183.6,-866.19 181.78,-876.62 189.71,-869.6 183.6,-866.19"></polygon>
<text text-anchor="middle" x="369.64" y="-496.92" font-family="Times,serif" font-size="14.00">association</text>
</g>

<g id="node11" class="node">
<title>JAK3</title>
<ellipse fill="lightgrey" stroke="black" cx="822.32" cy="-1079.05" rx="33.29" ry="18"></ellipse>
<text text-anchor="middle" x="822.32" y="-1075.35" font-family="Times,serif" font-size="14.00">JAK3</text>
</g>

<g id="edge32" class="edge">
<title>CD4-&gt;JAK3</title>
<path fill="none" stroke="black" d="M646.63,-150.14C662.08,-266.26 781.97,-908.48 814.52,-1051.03"></path>
<polygon fill="black" stroke="black" points="811.2,-1052.19 816.89,-1061.13 818.02,-1050.6 811.2,-1052.19"></polygon>
<text text-anchor="middle" x="690.58" y="-604.38" font-family="Times,serif" font-size="14.00">association</text>
</g>

<g id="node12" class="node">
<title>STAT5A</title>
<ellipse fill="lightgrey" stroke="black" cx="462.05" cy="-1112.44" rx="46.29" ry="18"></ellipse>
<text text-anchor="middle" x="462.05" y="-1108.74" font-family="Times,serif" font-size="14.00">STAT5A</text>
</g>

<g id="edge35" class="edge">
<title>CD4-&gt;STAT5A</title>
<path fill="none" stroke="black" d="M639.91,-150.03C611.5,-268.44 486.12,-938.37 464.82,-1084.35"></path>
<polygon fill="black" stroke="black" points="461.35,-1083.92 463.42,-1094.31 468.28,-1084.89 461.35,-1083.92"></polygon>
<text text-anchor="middle" x="512.37" y="-620.99" font-family="Times,serif" font-size="14.00">association</text>
</g>

<g id="node14" class="node">
<title>CD8B</title>
<ellipse fill="lightgrey" stroke="black" cx="462.05" cy="-149.1" rx="37.89" ry="18"></ellipse>
<text text-anchor="middle" x="462.05" y="-145.4" font-family="Times,serif" font-size="14.00">CD8B</text>
</g>

<g id="edge33" class="edge">
<title>CD4-&gt;CD8B</title>
<path fill="none" stroke="black" d="M615.05,-134.92C586.3,-137.59 542.65,-141.63 509.32,-144.72"></path>
<polygon fill="black" stroke="black" points="508.96,-141.24 499.33,-145.64 509.61,-148.21 508.96,-141.24"></polygon>
<text text-anchor="middle" x="562.18" y="-128.62" font-family="Times,serif" font-size="14.00">association</text>
</g>

<g id="edge47" class="edge">
<title>ACE2-&gt;CD4</title>
<path fill="none" stroke="black" d="M202.6,-356.35C287.23,-319.15 531.37,-197.64 616.02,-150.67"></path>
<polygon fill="black" stroke="black" points="617.84,-153.66 624.85,-145.71 614.42,-147.56 617.84,-153.66"></polygon>
<text text-anchor="middle" x="369.31" y="-257.31" font-family="Times,serif" font-size="14.00">association</text>
</g>

<g id="edge19" class="edge">
<title>ACE2-&gt;COVID-19</title>
<path fill="none" stroke="black" d="M166.46,-384.86C154.86,-414.79 131.32,-475.56 117.54,-511.13"></path>
<polygon fill="black" stroke="black" points="114.12,-510.28 113.77,-520.87 120.64,-512.81 114.12,-510.28"></polygon>
<text text-anchor="middle" x="71" y="-451.79" font-family="Times,serif" font-size="14.00">positive_correlation</text>
</g>

<g id="edge6" class="edge">
<title>HLA-B-&gt;MICB</title>
<path fill="none" stroke="black" d="M843.05,-198.14C868.67,-217.48 912.38,-250.49 941.02,-272.12"></path>
<polygon fill="black" stroke="black" points="938.94,-274.94 949.03,-278.17 943.16,-269.35 938.94,-274.94"></polygon>
<text text-anchor="middle" x="852.04" y="-238.93" font-family="Times,serif" font-size="14.00">association</text>
</g>

<g id="edge50" class="edge">
<title>HLA-B-&gt;CD4</title>
<path fill="none" stroke="black" d="M788.19,-172.77C757.91,-164.16 713.77,-151.6 682.58,-142.72"></path>
<polygon fill="black" stroke="black" points="683.52,-139.35 672.94,-139.98 681.6,-146.08 683.52,-139.35"></polygon>
<text text-anchor="middle" x="695.38" y="-161.55" font-family="Times,serif" font-size="14.00">association</text>
</g>

<g id="node8" class="node">
<title>STAT1</title>
<ellipse fill="lightgrey" stroke="black" cx="969.18" cy="-968.14" rx="40.09" ry="18"></ellipse>
<text text-anchor="middle" x="969.18" y="-964.44" font-family="Times,serif" font-size="14.00">STAT1</text>
</g>

<g id="edge39" class="edge">
<title>HLA-B-&gt;STAT1</title>
<path fill="none" stroke="black" d="M825.73,-200.75C845.03,-303.95 940.36,-813.96 963.92,-939.96"></path>
<polygon fill="black" stroke="black" points="960.51,-940.79 965.79,-949.98 967.39,-939.51 960.51,-940.79"></polygon>
<text text-anchor="middle" x="854.82" y="-574.15" font-family="Times,serif" font-size="14.00">association</text>
</g>

<g id="node10" class="node">
<title>CXCR4</title>
<ellipse fill="lightgrey" stroke="black" cx="297.31" cy="-1030.4" rx="43.59" ry="18"></ellipse>
<text text-anchor="middle" x="297.31" y="-1026.7" font-family="Times,serif" font-size="14.00">CXCR4</text>
</g>

<g id="edge57" class="edge">
<title>HLA-B-&gt;CXCR4</title>
<path fill="none" stroke="black" d="M811.35,-200.19C744.63,-307.95 393.39,-875.23 313.49,-1004.27"></path>
<polygon fill="black" stroke="black" points="310.5,-1002.45 308.21,-1012.79 316.45,-1006.13 310.5,-1002.45"></polygon>
<text text-anchor="middle" x="602.42" y="-606.03" font-family="Times,serif" font-size="14.00">association</text>
</g>

<g id="node15" class="node">
<title>IFNA1</title>
<ellipse fill="lightgrey" stroke="black" cx="1066.07" cy="-811.67" rx="40.09" ry="18"></ellipse>
<text text-anchor="middle" x="1066.07" y="-807.97" font-family="Times,serif" font-size="14.00">IFNA1</text>
</g>

<g id="edge64" class="edge">
<title>HLA-B-&gt;IFNA1</title>
<path fill="none" stroke="black" d="M829.22,-200.3C863.33,-288.35 1013.93,-677.09 1055.44,-784.24"></path>
<polygon fill="black" stroke="black" points="1052.23,-785.65 1059.11,-793.71 1058.76,-783.12 1052.23,-785.65"></polygon>
<text text-anchor="middle" x="902.33" y="-496.07" font-family="Times,serif" font-size="14.00">association</text>
</g>

<g id="edge56" class="edge">
<title>IFNG-&gt;CD4</title>
<path fill="none" stroke="black" d="M124.5,-707.1C205.93,-626.07 543.73,-255.67 626.83,-156.54"></path>
<polygon fill="black" stroke="black" points="629.53,-158.76 633.23,-148.83 624.15,-154.29 629.53,-158.76"></polygon>
<text text-anchor="middle" x="335.67" y="-435.62" font-family="Times,serif" font-size="14.00">association</text>
</g>

<g id="edge18" class="edge">
<title>IFNG-&gt;ACE2</title>
<path fill="none" stroke="black" d="M110.23,-704.66C121.08,-646.63 155,-465.14 168.1,-395.1"></path>
<polygon fill="black" stroke="black" points="171.54,-395.7 169.94,-385.23 164.66,-394.41 171.54,-395.7"></polygon>
<text text-anchor="middle" x="179.16" y="-553.68" font-family="Times,serif" font-size="14.00">association</text>
</g>

<g id="edge9" class="edge">
<title>IFNG-&gt;STAT1</title>
<path fill="none" stroke="black" d="M138.04,-731.66C268.66,-768.83 771.81,-911.99 924.8,-955.52"></path>
<polygon fill="black" stroke="black" points="924.21,-958.99 934.78,-958.36 926.12,-952.25 924.21,-958.99"></polygon>
<text text-anchor="middle" x="491.42" y="-847.39" font-family="Times,serif" font-size="14.00">association</text>
</g>

<g id="edge29" class="edge">
<title>IFNG-&gt;STAT3</title>
<path fill="none" stroke="black" d="M113.71,-740.51C125.3,-770.44 148.85,-831.21 162.62,-866.78"></path>
<polygon fill="black" stroke="black" points="159.52,-868.46 166.4,-876.52 166.05,-865.93 159.52,-868.46"></polygon>
<text text-anchor="middle" x="98.16" y="-807.44" font-family="Times,serif" font-size="14.00">association</text>
</g>

<g id="edge20" class="edge">
<title>IFNG-&gt;JAK3</title>
<path fill="none" stroke="black" d="M132.31,-735.47C240.88,-789.53 665.16,-1000.8 788.51,-1062.22"></path>
<polygon fill="black" stroke="black" points="787.02,-1065.38 797.53,-1066.71 790.14,-1059.12 787.02,-1065.38"></polygon>
<text text-anchor="middle" x="420.41" y="-902.64" font-family="Times,serif" font-size="14.00">association</text>
</g>

<g id="edge28" class="edge">
<title>IFNG-&gt;STAT5A</title>
<path fill="none" stroke="black" d="M122.1,-739.53C178.11,-800.96 372.51,-1014.21 439.31,-1087.49"></path>
<polygon fill="black" stroke="black" points="437.12,-1090.28 446.45,-1095.32 442.3,-1085.57 437.12,-1090.28"></polygon>
<text text-anchor="middle" x="240.71" y="-917.31" font-family="Times,serif" font-size="14.00">association</text>
</g>

<g id="node13" class="node">
<title>STAT6</title>
<ellipse fill="lightgrey" stroke="black" cx="645.31" cy="-1129.42" rx="40.09" ry="18"></ellipse>
<text text-anchor="middle" x="645.31" y="-1125.72" font-family="Times,serif" font-size="14.00">STAT6</text>
</g>

<g id="edge31" class="edge">
<title>IFNG-&gt;STAT6</title>
<path fill="none" stroke="black" d="M126.97,-737.98C209.16,-800.06 519.6,-1034.49 616.34,-1107.54"></path>
<polygon fill="black" stroke="black" points="614.41,-1110.47 624.5,-1113.71 618.63,-1104.89 614.41,-1110.47"></polygon>
<text text-anchor="middle" x="331.65" y="-926.56" font-family="Times,serif" font-size="14.00">association</text>
</g>

<g id="edge10" class="edge">
<title>STAT1-&gt;COVID-19</title>
<path fill="none" stroke="black" d="M941.95,-954.58C816.73,-892.23 295.99,-632.93 146.89,-558.69"></path>
<polygon fill="black" stroke="black" points="148.13,-555.4 137.61,-554.07 145.01,-561.66 148.13,-555.4"></polygon>
<text text-anchor="middle" x="473.42" y="-760.44" font-family="Times,serif" font-size="14.00">positive_correlation</text>
</g>

<g id="edge11" class="edge">
<title>STAT1-&gt;STAT3</title>
<path fill="none" stroke="black" d="M929.72,-964.49C797.4,-952.23 369.59,-912.58 223.08,-899.01"></path>
<polygon fill="black" stroke="black" points="223.31,-895.51 213.03,-898.08 222.66,-902.48 223.31,-895.51"></polygon>
<text text-anchor="middle" x="536.4" y="-935.55" font-family="Times,serif" font-size="14.00">association</text>
</g>

<g id="edge40" class="edge">
<title>STAT3-&gt;CD4</title>
<path fill="none" stroke="black" d="M186.69,-877.13C255.13,-777.71 563.95,-279.16 632.07,-158.45"></path>
<polygon fill="black" stroke="black" points="635.26,-159.92 637.07,-149.49 629.14,-156.52 635.26,-159.92"></polygon>
<text text-anchor="middle" x="369.38" y="-521.59" font-family="Times,serif" font-size="14.00">association</text>
</g>

<g id="edge14" class="edge">
<title>STAT3-&gt;ACE2</title>
<path fill="none" stroke="black" d="M173.32,-876.25C173.32,-798.13 173.32,-490.25 173.32,-395.22"></path>
<polygon fill="black" stroke="black" points="176.82,-395.21 173.32,-385.21 169.82,-395.21 176.82,-395.21"></polygon>
<text text-anchor="middle" x="102.32" y="-639.54" font-family="Times,serif" font-size="14.00">positive_correlation</text>
</g>

<g id="edge12" class="edge">
<title>STAT3-&gt;CXCR4</title>
<path fill="none" stroke="black" d="M178.69,-912.49C193.92,-937.84 233.44,-982.68 262.94,-1009.39"></path>
<polygon fill="black" stroke="black" points="260.76,-1012.13 270.59,-1016.09 265.38,-1006.87 260.76,-1012.13"></polygon>
<text text-anchor="middle" x="147.32" y="-964.74" font-family="Times,serif" font-size="14.00">negative_correlation</text>
</g>

<g id="edge13" class="edge">
<title>STAT3-&gt;CXCR4</title>
<path fill="none" stroke="black" d="M199.56,-908.3C226.48,-930.91 266.32,-974.65 286.16,-1003.4"></path>
<polygon fill="black" stroke="black" points="283.47,-1005.69 291.86,-1012.17 289.34,-1001.87 283.47,-1005.69"></polygon>
<text text-anchor="middle" x="171.86" y="-944.65" font-family="Times,serif" font-size="14.00">positive_correlation</text>
</g>

<g id="edge15" class="edge">
<title>STAT3-&gt;CXCR4</title>
<path fill="none" stroke="black" d="M188.53,-911.07C210.07,-934.7 249.63,-978.1 274.64,-1005.54"></path>
<polygon fill="black" stroke="black" points="272.27,-1008.13 281.59,-1013.16 277.44,-1003.41 272.27,-1008.13"></polygon>
<text text-anchor="middle" x="271.58" y="-962.1" font-family="Times,serif" font-size="14.00">association</text>
</g>

<g id="edge43" class="edge">
<title>CXCR4-&gt;CD4</title>
<path fill="none" stroke="black" d="M306.56,-1012.41C356.52,-900.16 590.43,-296.73 637.27,-159.77"></path>
<polygon fill="black" stroke="black" points="640.68,-160.63 640.55,-150.03 634.04,-158.4 640.68,-160.63"></polygon>
<text text-anchor="middle" x="431.91" y="-589.89" font-family="Times,serif" font-size="14.00">association</text>
</g>

<g id="edge53" class="edge">
<title>CXCR4-&gt;CD4</title>
<path fill="none" stroke="black" d="M302.19,-1012.12C339.54,-898.81 574.03,-293.11 632.34,-158.59"></path>
<polygon fill="black" stroke="black" points="635.57,-159.95 636.38,-149.39 629.16,-157.14 635.57,-159.95"></polygon>
<text text-anchor="middle" x="451.26" y="-574.15" font-family="Times,serif" font-size="14.00">bind</text>
</g>

<g id="edge16" class="edge">
<title>CXCR4-&gt;COVID-19</title>
<path fill="none" stroke="black" d="M293.15,-1012.22C269.8,-937.61 160.52,-654.92 120.93,-565.81"></path>
<polygon fill="black" stroke="black" points="124.09,-564.29 116.78,-556.62 117.71,-567.18 124.09,-564.29"></polygon>
<text text-anchor="middle" x="136.04" y="-777.81" font-family="Times,serif" font-size="14.00">positive_correlation</text>
</g>

<g id="edge17" class="edge">
<title>CXCR4-&gt;COVID-19</title>
<path fill="none" stroke="black" d="M287.47,-1012.74C253.45,-939.09 143.74,-656.33 114.04,-566.38"></path>
<polygon fill="black" stroke="black" points="117.38,-565.31 110.98,-556.86 110.71,-567.45 117.38,-565.31"></polygon>
<text text-anchor="middle" x="274.26" y="-793.36" font-family="Times,serif" font-size="14.00">negative_correlation</text>
</g>

<g id="edge30" class="edge">
<title>CXCR4-&gt;JAK3</title>
<path fill="none" stroke="black" d="M337.28,-1037.93C433.86,-1050.79 679.27,-1073.56 779.1,-1078.97"></path>
<polygon fill="black" stroke="black" points="778.97,-1082.47 789.13,-1079.48 779.32,-1075.48 778.97,-1082.47"></polygon>
<text text-anchor="middle" x="518.19" y="-1062.25" font-family="Times,serif" font-size="14.00">association</text>
</g>

<g id="edge42" class="edge">
<title>JAK3-&gt;CD4</title>
<path fill="none" stroke="black" d="M821,-1061.03C805.54,-944.91 685.66,-302.69 653.1,-160.15"></path>
<polygon fill="black" stroke="black" points="656.42,-158.98 650.74,-150.04 649.61,-160.57 656.42,-158.98"></polygon>
<text text-anchor="middle" x="777.05" y="-614.39" font-family="Times,serif" font-size="14.00">association</text>
</g>

<g id="edge25" class="edge">
<title>JAK3-&gt;STAT1</title>
<path fill="none" stroke="black" d="M841.82,-1064.32C867.1,-1045.23 911.39,-1011.79 940.51,-989.8"></path>
<polygon fill="black" stroke="black" points="942.78,-992.47 948.66,-983.65 938.57,-986.88 942.78,-992.47"></polygon>
<text text-anchor="middle" x="851.17" y="-1030.86" font-family="Times,serif" font-size="14.00">association</text>
</g>

<g id="edge23" class="edge">
<title>JAK3-&gt;STAT3</title>
<path fill="none" stroke="black" d="M795.24,-1068.28C695.45,-1034.89 347.55,-935.65 220.35,-903.95"></path>
<polygon fill="black" stroke="black" points="221.06,-900.52 210.52,-901.53 219.39,-907.32 221.06,-900.52"></polygon>
<text text-anchor="middle" x="467.8" y="-974.91" font-family="Times,serif" font-size="14.00">association</text>
</g>

<g id="edge44" class="edge">
<title>JAK3-&gt;STAT3</title>
<path fill="none" stroke="black" d="M790.61,-1073.24C683.2,-1047.6 333.27,-948.19 213.76,-909.56"></path>
<polygon fill="black" stroke="black" points="214.5,-906.12 203.91,-906.34 212.32,-912.77 214.5,-906.12"></polygon>
<text text-anchor="middle" x="486.18" y="-995.2" font-family="Times,serif" font-size="14.00">bind</text>
</g>

<g id="edge24" class="edge">
<title>JAK3-&gt;CXCR4</title>
<path fill="none" stroke="black" d="M790.98,-1072.7C704.27,-1060.53 460.43,-1037.65 351.29,-1031.1"></path>
<polygon fill="black" stroke="black" points="351.34,-1027.6 341.16,-1030.52 350.94,-1034.59 351.34,-1027.6"></polygon>
<text text-anchor="middle" x="531.13" y="-1040.7" font-family="Times,serif" font-size="14.00">association</text>
</g>

<g id="edge21" class="edge">
<title>JAK3-&gt;STAT5A</title>
<path fill="none" stroke="black" d="M789.01,-1078.02C725.84,-1080.62 588.23,-1093.1 513.25,-1102.77"></path>
<polygon fill="black" stroke="black" points="512.55,-1099.33 503.1,-1104.11 513.47,-1106.27 512.55,-1099.33"></polygon>
<text text-anchor="middle" x="611.13" y="-1094.2" font-family="Times,serif" font-size="14.00">association</text>
</g>

<g id="edge45" class="edge">
<title>JAK3-&gt;STAT5A</title>
<path fill="none" stroke="black" d="M791.66,-1085.91C731.12,-1094.81 595.42,-1107.74 518.35,-1112.29"></path>
<polygon fill="black" stroke="black" points="518.12,-1108.8 508.33,-1112.85 518.51,-1115.78 518.12,-1108.8"></polygon>
<text text-anchor="middle" x="671" y="-1087.9" font-family="Times,serif" font-size="14.00">bind</text>
</g>

<g id="edge26" class="edge">
<title>JAK3-&gt;STAT6</title>
<path fill="none" stroke="black" d="M792.69,-1087.48C764.42,-1095.53 721.47,-1107.75 689.22,-1116.92"></path>
<polygon fill="black" stroke="black" points="688.24,-1113.56 679.58,-1119.66 690.16,-1120.29 688.24,-1113.56"></polygon>
<text text-anchor="middle" x="780.96" y="-1106" font-family="Times,serif" font-size="14.00">association</text>
</g>

<g id="edge41" class="edge">
<title>STAT5A-&gt;CD4</title>
<path fill="none" stroke="black" d="M467.45,-1094.53C495.86,-976.12 621.24,-306.19 642.54,-160.2"></path>
<polygon fill="black" stroke="black" points="646.01,-160.63 643.94,-150.24 639.08,-159.66 646.01,-160.63"></polygon>
<text text-anchor="middle" x="594.99" y="-631.17" font-family="Times,serif" font-size="14.00">association</text>
</g>

<g id="edge22" class="edge">
<title>STAT5A-&gt;CXCR4</title>
<path fill="none" stroke="black" d="M433.36,-1098.15C405.91,-1084.48 364.37,-1063.79 334.41,-1048.88"></path>
<polygon fill="black" stroke="black" points="335.64,-1045.58 325.13,-1044.25 332.52,-1051.85 335.64,-1045.58"></polygon>
<text text-anchor="middle" x="312.89" y="-1077.31" font-family="Times,serif" font-size="14.00">positive_correlation</text>
</g>

<g id="edge27" class="edge">
<title>STAT6-&gt;CXCR4</title>
<path fill="none" stroke="black" d="M611.31,-1119.74C548.47,-1101.86 414.11,-1063.64 343.24,-1043.47"></path>
<polygon fill="black" stroke="black" points="343.84,-1040 333.27,-1040.63 341.93,-1046.74 343.84,-1040"></polygon>
<text text-anchor="middle" x="437.28" y="-1070.41" font-family="Times,serif" font-size="14.00">association</text>
</g>

<g id="edge34" class="edge">
<title>CD8B-&gt;IFNG</title>
<path fill="none" stroke="black" d="M451.23,-166.58C400.26,-248.9 184.12,-597.97 123,-696.69"></path>
<polygon fill="black" stroke="black" points="119.87,-695.1 117.58,-705.44 125.82,-698.78 119.87,-695.1"></polygon>
<text text-anchor="middle" x="247.11" y="-435.43" font-family="Times,serif" font-size="14.00">association</text>
</g>

<g id="edge52" class="edge">
<title>IFNA1-&gt;CD4</title>
<path fill="none" stroke="black" d="M1055.24,-794.19C997.88,-701.54 729.44,-267.99 661.14,-157.69"></path>
<polygon fill="black" stroke="black" points="664.11,-155.83 655.87,-149.17 658.16,-159.52 664.11,-155.83"></polygon>
<text text-anchor="middle" x="818.19" y="-479.74" font-family="Times,serif" font-size="14.00">association</text>
</g>

<g id="edge37" class="edge">
<title>IFNA1-&gt;STAT1</title>
<path fill="none" stroke="black" d="M1055.14,-829.32C1038.21,-856.67 1005.51,-909.48 985.69,-941.49"></path>
<polygon fill="black" stroke="black" points="982.51,-939.98 980.22,-950.32 988.46,-943.66 982.51,-939.98"></polygon>
<text text-anchor="middle" x="980.41" y="-889.21" font-family="Times,serif" font-size="14.00">association</text>
</g>

<g id="node20" class="node">
<title>ORF6</title>
<ellipse fill="lightgrey" stroke="black" cx="1099.89" cy="-630.77" rx="37.09" ry="18"></ellipse>
<text text-anchor="middle" x="1099.89" y="-627.07" font-family="Times,serif" font-size="14.00">ORF6</text>
</g>

<g id="edge58" class="edge">
<title>IFNA1-&gt;ORF6</title>
<path fill="none" stroke="black" d="M1069.43,-793.66C1075.33,-762.1 1087.58,-696.59 1094.61,-658.97"></path>
<polygon fill="black" stroke="black" points="1098.14,-659.17 1096.53,-648.7 1091.25,-657.89 1098.14,-659.17"></polygon>
<text text-anchor="middle" x="1042.02" y="-730.12" font-family="Times,serif" font-size="14.00">association</text>
</g>

<g id="node16" class="node">
<title>IFN1@</title>
<ellipse fill="lightgrey" stroke="black" cx="1054.57" cy="-1045.99" rx="43.59" ry="18"></ellipse>
<text text-anchor="middle" x="1054.57" y="-1042.29" font-family="Times,serif" font-size="14.00">IFN1@</text>
</g>

<g id="edge38" class="edge">
<title>IFN1@-&gt;STAT1</title>
<path fill="none" stroke="black" d="M1036.47,-1029.48C1024.27,-1018.36 1008.02,-1003.54 994.54,-991.26"></path>
<polygon fill="black" stroke="black" points="996.72,-988.51 986.97,-984.36 992.01,-993.69 996.72,-988.51"></polygon>
<text text-anchor="middle" x="975.5" y="-1014.17" font-family="Times,serif" font-size="14.00">association</text>
</g>

<g id="node17" class="node">
<title>CCR5</title>
<ellipse fill="lightgrey" stroke="black" cx="579.46" cy="-18" rx="37.09" ry="18"></ellipse>
<text text-anchor="middle" x="579.46" y="-14.3" font-family="Times,serif" font-size="14.00">CCR5</text>
</g>

<g id="edge46" class="edge">
<title>CCR5-&gt;CD4</title>
<path fill="none" stroke="black" d="M584.3,-36.04C593.01,-55.47 610.46,-86.39 624.59,-107.91"></path>
<polygon fill="black" stroke="black" points="621.71,-109.9 630.21,-116.22 627.51,-105.98 621.71,-109.9"></polygon>
<text text-anchor="middle" x="588.45" y="-75.78" font-family="Times,serif" font-size="14.00">bind</text>
</g>

<g id="edge51" class="edge">
<title>CCR5-&gt;CD4</title>
<path fill="none" stroke="black" d="M595.14,-34.75C608.04,-53.3 625.54,-83.36 636.28,-105.21"></path>
<polygon fill="black" stroke="black" points="633.13,-106.75 640.56,-114.3 639.46,-103.76 633.13,-106.75"></polygon>
<text text-anchor="middle" x="575.71" y="-58.78" font-family="Times,serif" font-size="14.00">association</text>
</g>

<g id="node18" class="node">
<title>S</title>
<ellipse fill="lightgrey" stroke="black" cx="297.31" cy="-231.13" rx="27" ry="18"></ellipse>
<text text-anchor="middle" x="297.31" y="-227.43" font-family="Times,serif" font-size="14.00">S</text>
</g>

<g id="edge48" class="edge">
<title>S-&gt;CD4</title>
<path fill="none" stroke="black" d="M323.92,-227.45C386.31,-213.67 541.88,-169.6 611.13,-146.29"></path>
<polygon fill="black" stroke="black" points="612.38,-149.56 620.7,-143.01 610.11,-142.94 612.38,-149.56"></polygon>
<text text-anchor="middle" x="451.53" y="-190.67" font-family="Times,serif" font-size="14.00">bind</text>
</g>

<g id="edge55" class="edge">
<title>S-&gt;CD4</title>
<path fill="none" stroke="black" d="M319.7,-221.02C377.5,-200.51 532.28,-156.19 605.66,-138.8"></path>
<polygon fill="black" stroke="black" points="606.51,-142.19 615.46,-136.53 604.93,-135.37 606.51,-142.19"></polygon>
<text text-anchor="middle" x="502.68" y="-183.71" font-family="Times,serif" font-size="14.00">association</text>
</g>

<g id="edge68" class="edge">
<title>S-&gt;ACE2</title>
<path fill="none" stroke="black" d="M278.97,-244.45C254.7,-267.07 212.63,-312.94 189.49,-341.8"></path>
<polygon fill="black" stroke="black" points="186.63,-339.78 183.23,-349.81 192.15,-344.09 186.63,-339.78"></polygon>
<text text-anchor="middle" x="218.23" y="-296.92" font-family="Times,serif" font-size="14.00">bind</text>
</g>

<g id="edge69" class="edge">
<title>S-&gt;ACE2</title>
<path fill="none" stroke="black" d="M287.69,-248.08C269.19,-272.56 228.68,-317.55 201.13,-344.72"></path>
<polygon fill="black" stroke="black" points="198.48,-342.42 193.73,-351.89 203.35,-347.45 198.48,-342.42"></polygon>
<text text-anchor="middle" x="284.41" y="-300.2" font-family="Times,serif" font-size="14.00">association</text>
</g>

<g id="node19" class="node">
<title>HLA-C</title>
<ellipse fill="lightgrey" stroke="black" cx="727.83" cy="-31.35" rx="40.09" ry="18"></ellipse>
<text text-anchor="middle" x="727.83" y="-27.65" font-family="Times,serif" font-size="14.00">HLA-C</text>
</g>

<g id="edge54" class="edge">
<title>HLA-C-&gt;CD4</title>
<path fill="none" stroke="black" d="M713.83,-48.45C700.51,-64.71 680.33,-89.35 665.32,-107.68"></path>
<polygon fill="black" stroke="black" points="662.45,-105.66 658.83,-115.61 667.87,-110.09 662.45,-105.66"></polygon>
<text text-anchor="middle" x="649.57" y="-81.86" font-family="Times,serif" font-size="14.00">association</text>
</g>

<g id="edge61" class="edge">
<title>ORF6-&gt;CD4</title>
<path fill="none" stroke="black" d="M1084.76,-614.18C1017.53,-540.43 745.68,-242.22 666.84,-155.73"></path>
<polygon fill="black" stroke="black" points="669.35,-153.3 660.03,-148.27 664.18,-158.01 669.35,-153.3"></polygon>
<text text-anchor="middle" x="835.8" y="-388.76" font-family="Times,serif" font-size="14.00">association</text>
</g>

<g id="edge59" class="edge">
<title>ORF6-&gt;STAT1</title>
<path fill="none" stroke="black" d="M1092.86,-648.91C1071.22,-704.76 1005.52,-874.36 979.73,-940.92"></path>
<polygon fill="black" stroke="black" points="976.44,-939.74 976.09,-950.33 982.96,-942.27 976.44,-939.74"></polygon>
<text text-anchor="middle" x="996.3" y="-783.71" font-family="Times,serif" font-size="14.00">association</text>
</g>

<g id="node21" class="node">
<title>IFNB1</title>
<ellipse fill="lightgrey" stroke="black" cx="1379.72" cy="-630.77" rx="40.89" ry="18"></ellipse>
<text text-anchor="middle" x="1379.72" y="-627.07" font-family="Times,serif" font-size="14.00">IFNB1</text>
</g>

<g id="edge60" class="edge">
<title>IFNB1-&gt;ORF6</title>
<path fill="none" stroke="black" d="M1338.73,-630.77C1287.78,-630.77 1201,-630.77 1147.25,-630.77"></path>
<polygon fill="black" stroke="black" points="1146.96,-627.27 1136.96,-630.77 1146.96,-634.27 1146.96,-627.27"></polygon>
<text text-anchor="middle" x="1202.99" y="-634.57" font-family="Times,serif" font-size="14.00">association</text>
</g>

<g id="node22" class="node">
<title>IFNAR1</title>
<ellipse fill="lightgrey" stroke="black" cx="1379.72" cy="-470.38" rx="47.39" ry="18"></ellipse>
<text text-anchor="middle" x="1379.72" y="-466.68" font-family="Times,serif" font-size="14.00">IFNAR1</text>
</g>

<g id="edge66" class="edge">
<title>IFNAR1-&gt;IFNB1</title>
<path fill="none" stroke="black" d="M1379.72,-488.46C1379.72,-516.14 1379.72,-569.24 1379.72,-602.17"></path>
<polygon fill="black" stroke="black" points="1376.22,-602.5 1379.72,-612.5 1383.22,-602.5 1376.22,-602.5"></polygon>
<text text-anchor="middle" x="1363.72" y="-549.12" font-family="Times,serif" font-size="14.00">bind</text>
</g>

<g id="node23" class="node">
<title>IFNA8</title>
<ellipse fill="lightgrey" stroke="black" cx="1379.72" cy="-791.16" rx="40.09" ry="18"></ellipse>
<text text-anchor="middle" x="1379.72" y="-787.46" font-family="Times,serif" font-size="14.00">IFNA8</text>
</g>

<g id="edge67" class="edge">
<title>IFNA8-&gt;IFNB1</title>
<path fill="none" stroke="black" d="M1379.72,-773.07C1379.72,-745.4 1379.72,-692.29 1379.72,-659.36"></path>
<polygon fill="black" stroke="black" points="1383.22,-659.03 1379.72,-649.03 1376.22,-659.03 1383.22,-659.03"></polygon>
<text text-anchor="middle" x="1363.72" y="-720.02" font-family="Times,serif" font-size="14.00">bind</text>
</g>
</g>
</g></svg>