<svg width="2645pt" height="1262pt" xmlns="http://www.w3.org/2000/svg" xmlns:xlink="http://www.w3.org/1999/xlink" xmlns:ev="http://www.w3.org/2001/xml-events" style="overflow: hidden; width: 947.75px; height: 452.196px;"><g id="viewport-20260427161234901" class="svg-pan-zoom_viewport" transform="matrix(0.358161648177496,0,0,0.358161648177496,0.39031695721081405,0)" style="transform: matrix(0.358162, 0, 0, 0.358162, 0.390317, 0);">
<g id="graph0" class="graph" transform="scale(1 1) rotate(0) translate(4 1258)">

<g id="node1" class="node">
<title>CD4</title>
<ellipse fill="lightgrey" stroke="black" cx="1193.67" cy="-888" rx="30.59" ry="18"></ellipse>
<text text-anchor="middle" x="1193.67" y="-884.3" font-family="Times,serif" font-size="14.00">CD4</text>
</g>

<g id="node2" class="node">
<title>STAT3</title>
<ellipse fill="lightgrey" stroke="black" cx="1213.67" cy="-453" rx="40.09" ry="18"></ellipse>
<text text-anchor="middle" x="1213.67" y="-449.3" font-family="Times,serif" font-size="14.00">STAT3</text>
</g>

<g id="edge1" class="edge">
<title>CD4-&gt;STAT3</title>
<path fill="none" stroke="black" d="M1163.07,-886.05C1133.63,-883.65 1089.33,-875.93 1059.67,-852 987.57,-793.81 938.46,-749.5 971.67,-663 1008.62,-566.78 1119.26,-500.2 1177.27,-470.87"></path>
<polygon fill="black" stroke="black" points="1179.04,-473.9 1186.45,-466.32 1175.94,-467.63 1179.04,-473.9"></polygon>
<text text-anchor="middle" x="1011.67" y="-666.8" font-family="Times,serif" font-size="14.00">association</text>
</g>

<g id="node4" class="node">
<title>JAK3</title>
<ellipse fill="lightgrey" stroke="black" cx="1564.67" cy="-279" rx="33.29" ry="18"></ellipse>
<text text-anchor="middle" x="1564.67" y="-275.3" font-family="Times,serif" font-size="14.00">JAK3</text>
</g>

<g id="edge63" class="edge">
<title>CD4-&gt;JAK3</title>
<path fill="none" stroke="black" d="M1198.33,-869.84C1200.99,-860.17 1204.43,-847.89 1207.67,-837 1214.84,-812.88 1216.64,-806.84 1224.67,-783 1253.63,-697.07 1278.11,-680.33 1293.67,-591 1294.82,-584.43 1295.06,-582.52 1293.67,-576 1291.85,-567.44 1287.49,-566.56 1285.67,-558 1282.35,-542.35 1275.94,-534.7 1285.67,-522 1304.43,-497.53 1329.82,-524.7 1352.67,-504 1407.62,-454.25 1367.47,-407.51 1411.67,-348 1426.04,-328.66 1433.32,-326.15 1454.67,-315 1476.6,-303.55 1502.96,-295 1524.38,-289.22"></path>
<polygon fill="black" stroke="black" points="1525.35,-292.59 1534.14,-286.68 1523.58,-285.81 1525.35,-292.59"></polygon>
<text text-anchor="middle" x="1333.67" y="-579.8" font-family="Times,serif" font-size="14.00">association</text>
</g>

<g id="node5" class="node">
<title>STAT5A</title>
<ellipse fill="lightgrey" stroke="black" cx="1874.67" cy="-192" rx="46.29" ry="18"></ellipse>
<text text-anchor="middle" x="1874.67" y="-188.3" font-family="Times,serif" font-size="14.00">STAT5A</text>
</g>

<g id="edge30" class="edge">
<title>CD4-&gt;STAT5A</title>
<path fill="none" stroke="black" d="M1224.5,-887.11C1322.99,-887.12 1629.02,-884.49 1721.67,-852 1836.16,-811.86 1843.82,-761.91 1945.67,-696 1958.73,-687.55 1963.21,-687.3 1975.67,-678 2057.83,-616.64 2066.33,-586.96 2145.67,-522 2175.46,-497.62 2198.22,-505.31 2215.67,-471 2247.36,-408.7 2239.45,-369.49 2195.67,-315 2130.01,-233.27 2003.09,-206.26 1930.05,-197.35"></path>
<polygon fill="black" stroke="black" points="1930.02,-193.83 1919.68,-196.17 1929.22,-200.78 1930.02,-193.83"></polygon>
<text text-anchor="middle" x="2185.67" y="-536.3" font-family="Times,serif" font-size="14.00">association</text>
</g>

<g id="node7" class="node">
<title>COVID-19</title>
<ellipse fill="lightgrey" stroke="black" cx="644.67" cy="-18" rx="56.59" ry="18"></ellipse>
<text text-anchor="middle" x="644.67" y="-14.3" font-family="Times,serif" font-size="14.00">COVID-19</text>
</g>

<g id="edge16" class="edge">
<title>CD4-&gt;COVID-19</title>
<path fill="none" stroke="black" d="M1162.89,-887.53C1089.74,-888.17 900.17,-886.08 746.67,-852 531.66,-804.27 475.84,-783.81 282.67,-678 148.19,-604.34 78.62,-606.4 6.67,-471 -5.96,-447.23 3.67,-437.42 3.67,-410.5 3.67,-410.5 3.67,-410.5 3.67,-104 3.67,-46.5 414.22,-26.59 578.19,-20.94"></path>
<polygon fill="black" stroke="black" points="578.75,-24.42 588.63,-20.58 578.52,-17.42 578.75,-24.42"></polygon>
<text text-anchor="middle" x="77.67" y="-449.3" font-family="Times,serif" font-size="14.00">positive_correlation</text>
</g>

<g id="edge17" class="edge">
<title>CD4-&gt;COVID-19</title>
<path fill="none" stroke="black" d="M1163.04,-886.62C1091.13,-885.29 913.65,-879.24 861.67,-852 835.71,-838.39 818.67,-831.31 818.67,-802 818.67,-802 818.67,-802 818.67,-669.5 818.67,-640.57 815.99,-628.55 794.67,-609 774.16,-590.18 759.06,-604.43 734.67,-591 669.96,-555.37 661.25,-532.05 619.67,-471 590.47,-428.12 566.67,-418.88 566.67,-367 566.67,-367 566.67,-367 566.67,-104 566.67,-76.89 588.48,-54.69 609.03,-39.78"></path>
<polygon fill="black" stroke="black" points="611.13,-42.58 617.39,-34.04 607.17,-36.81 611.13,-42.58"></polygon>
<text text-anchor="middle" x="693.17" y="-449.3" font-family="Times,serif" font-size="14.00">negative_correlation</text>
</g>

<g id="node10" class="node">
<title>ACE2</title>
<ellipse fill="lightgrey" stroke="black" cx="411.67" cy="-366" rx="36.29" ry="18"></ellipse>
<text text-anchor="middle" x="411.67" y="-362.3" font-family="Times,serif" font-size="14.00">ACE2</text>
</g>

<g id="edge15" class="edge">
<title>CD4-&gt;ACE2</title>
<path fill="none" stroke="black" d="M1163.19,-886C1071.25,-882.76 800.84,-871.67 766.67,-852 734.3,-833.36 747.21,-807.11 718.67,-783 594.56,-678.13 411.67,-746.98 411.67,-584.5 411.67,-584.5 411.67,-584.5 411.67,-452 411.67,-432.75 411.67,-411.05 411.67,-394.4"></path>
<polygon fill="black" stroke="black" points="415.17,-394.26 411.67,-384.26 408.17,-394.26 415.17,-394.26"></polygon>
<text text-anchor="middle" x="498.17" y="-623.3" font-family="Times,serif" font-size="14.00">negative_correlation</text>
</g>

<g id="node11" class="node">
<title>IFNG</title>
<ellipse fill="lightgrey" stroke="black" cx="1419.67" cy="-714" rx="36" ry="18"></ellipse>
<text text-anchor="middle" x="1419.67" y="-710.3" font-family="Times,serif" font-size="14.00">IFNG</text>
</g>

<g id="edge19" class="edge">
<title>CD4-&gt;IFNG</title>
<path fill="none" stroke="black" d="M1201.61,-870.37C1214.28,-844.35 1239.15,-795.69 1253.67,-783 1289.26,-751.91 1340.98,-733.78 1377.2,-724.18"></path>
<polygon fill="black" stroke="black" points="1378.15,-727.55 1386.98,-721.69 1376.43,-720.76 1378.15,-727.55"></polygon>
<text text-anchor="middle" x="1293.67" y="-797.3" font-family="Times,serif" font-size="14.00">association</text>
</g>

<g id="node14" class="node">
<title>CD8B</title>
<ellipse fill="lightgrey" stroke="black" cx="1529.67" cy="-801" rx="37.89" ry="18"></ellipse>
<text text-anchor="middle" x="1529.67" y="-797.3" font-family="Times,serif" font-size="14.00">CD8B</text>
</g>

<g id="edge28" class="edge">
<title>CD4-&gt;CD8B</title>
<path fill="none" stroke="black" d="M1222.85,-882.18C1257.94,-876.16 1318.5,-865.04 1369.67,-852 1411.46,-841.35 1458.47,-826.28 1490.67,-815.47"></path>
<polygon fill="black" stroke="black" points="1491.81,-818.78 1500.16,-812.26 1489.56,-812.15 1491.81,-818.78"></polygon>
<text text-anchor="middle" x="1462.67" y="-840.8" font-family="Times,serif" font-size="14.00">association</text>
</g>

<g id="edge31" class="edge">
<title>STAT3-&gt;CD4</title>
<path fill="none" stroke="black" d="M1210.37,-471.31C1205.87,-492.58 1196.61,-529.36 1181.67,-558 1154.29,-610.5 1118.94,-607.01 1099.67,-663 1073.73,-738.36 1137.31,-824.53 1172.38,-864.48"></path>
<polygon fill="black" stroke="black" points="1169.9,-866.95 1179.19,-872.06 1175.11,-862.28 1169.9,-866.95"></polygon>
<text text-anchor="middle" x="1139.67" y="-666.8" font-family="Times,serif" font-size="14.00">association</text>
</g>

<g id="node3" class="node">
<title>TNF</title>
<ellipse fill="lightgrey" stroke="black" cx="1564.67" cy="-366" rx="30.59" ry="18"></ellipse>
<text text-anchor="middle" x="1564.67" y="-362.3" font-family="Times,serif" font-size="14.00">TNF</text>
</g>

<g id="edge2" class="edge">
<title>STAT3-&gt;TNF</title>
<path fill="none" stroke="black" d="M1248.29,-443.62C1314.42,-427.6 1458.23,-392.78 1526.82,-376.17"></path>
<polygon fill="black" stroke="black" points="1527.87,-379.51 1536.76,-373.76 1526.22,-372.71 1527.87,-379.51"></polygon>
<text text-anchor="middle" x="1449.67" y="-405.8" font-family="Times,serif" font-size="14.00">association</text>
</g>

<g id="node6" class="node">
<title>CXCR4</title>
<ellipse fill="lightgrey" stroke="black" cx="1253.67" cy="-105" rx="43.59" ry="18"></ellipse>
<text text-anchor="middle" x="1253.67" y="-101.3" font-family="Times,serif" font-size="14.00">CXCR4</text>
</g>

<g id="edge32" class="edge">
<title>STAT3-&gt;CXCR4</title>
<path fill="none" stroke="black" d="M1208.23,-435.13C1202.21,-412.98 1195.56,-373.89 1213.67,-348 1224.38,-332.69 1234.99,-338.41 1251.67,-330 1264.28,-323.64 1266.27,-319.45 1279.67,-315 1305.26,-306.51 1381.33,-316.77 1399.67,-297 1453.97,-238.48 1345.63,-160.78 1287.37,-125.23"></path>
<polygon fill="black" stroke="black" points="1288.86,-122.05 1278.48,-119.9 1285.26,-128.05 1288.86,-122.05"></polygon>
<text text-anchor="middle" x="1453.67" y="-275.3" font-family="Times,serif" font-size="14.00">association</text>
</g>

<g id="edge42" class="edge">
<title>STAT3-&gt;CXCR4</title>
<path fill="none" stroke="black" d="M1176.61,-445.37C1158.47,-440.37 1137.6,-431.74 1123.67,-417 1099.13,-391.03 1070.29,-293.71 1084.67,-261 1112.16,-198.49 1178.68,-150.16 1219.59,-125.07"></path>
<polygon fill="black" stroke="black" points="1221.63,-127.93 1228.41,-119.78 1218.03,-121.93 1221.63,-127.93"></polygon>
<text text-anchor="middle" x="1158.17" y="-275.3" font-family="Times,serif" font-size="14.00">negative_correlation</text>
</g>

<g id="edge43" class="edge">
<title>STAT3-&gt;CXCR4</title>
<path fill="none" stroke="black" d="M1196.38,-436.25C1168.82,-409.25 1121.01,-353.33 1151.67,-315 1174.44,-286.54 1207.31,-324.11 1231.67,-297 1272.33,-251.76 1266.25,-174.16 1259.37,-133.18"></path>
<polygon fill="black" stroke="black" points="1262.78,-132.33 1257.54,-123.12 1255.89,-133.59 1262.78,-132.33"></polygon>
<text text-anchor="middle" x="1323.67" y="-275.3" font-family="Times,serif" font-size="14.00">positive_correlation</text>
</g>

<g id="edge36" class="edge">
<title>STAT3-&gt;ACE2</title>
<path fill="none" stroke="black" d="M1174.99,-447.9C1041.59,-433.76 601.1,-387.08 457.43,-371.85"></path>
<polygon fill="black" stroke="black" points="457.52,-368.34 447.21,-370.77 456.78,-375.3 457.52,-368.34"></polygon>
<text text-anchor="middle" x="932.67" y="-405.8" font-family="Times,serif" font-size="14.00">positive_correlation</text>
</g>

<g id="edge14" class="edge">
<title>TNF-&gt;CD4</title>
<path fill="none" stroke="black" d="M1564.25,-384.32C1563.89,-404.98 1563.69,-440.55 1565.67,-471 1566.63,-485.74 1565.42,-489.85 1569.67,-504 1579.98,-538.26 1597.45,-541.18 1605.67,-576 1610.47,-596.34 1595.67,-648.6 1595.67,-669.5 1595.67,-802 1595.67,-802 1595.67,-802 1595.67,-875.29 1336.68,-885.69 1234.46,-886.94"></path>
<polygon fill="black" stroke="black" points="1234.18,-883.44 1224.22,-887.04 1234.25,-890.44 1234.18,-883.44"></polygon>
<text text-anchor="middle" x="1643.67" y="-623.3" font-family="Times,serif" font-size="14.00">association</text>
</g>

<g id="edge3" class="edge">
<title>TNF-&gt;JAK3</title>
<path fill="none" stroke="black" d="M1564.67,-347.8C1564.67,-336.16 1564.67,-320.55 1564.67,-307.24"></path>
<polygon fill="black" stroke="black" points="1568.17,-307.18 1564.67,-297.18 1561.17,-307.18 1568.17,-307.18"></polygon>
<text text-anchor="middle" x="1604.67" y="-318.8" font-family="Times,serif" font-size="14.00">association</text>
</g>

<g id="edge62" class="edge">
<title>JAK3-&gt;CD4</title>
<path fill="none" stroke="black" d="M1597.54,-281.76C1660.49,-285.53 1795.56,-295.64 1837.67,-315 1928.96,-356.95 2016.83,-420.03 1961.67,-504 1933.55,-546.82 1906.48,-538.42 1871.67,-576 1846.46,-603.22 1849.76,-617.66 1824.67,-645 1726.21,-752.3 1705.47,-796.88 1570.67,-852 1510.65,-876.55 1319.19,-884.05 1234.56,-886.2"></path>
<polygon fill="black" stroke="black" points="1234.22,-882.7 1224.31,-886.44 1234.39,-889.7 1234.22,-882.7"></polygon>
<text text-anchor="middle" x="1911.67" y="-579.8" font-family="Times,serif" font-size="14.00">association</text>
</g>

<g id="edge13" class="edge">
<title>JAK3-&gt;STAT3</title>
<path fill="none" stroke="black" d="M1538.81,-290.27C1531.44,-292.84 1523.33,-295.34 1515.67,-297 1431.91,-315.18 1407.2,-295.78 1323.67,-315 1313.49,-317.34 1242.48,-340.08 1235.67,-348 1217.49,-369.14 1213.11,-401.55 1212.57,-424.56"></path>
<polygon fill="black" stroke="black" points="1209.07,-424.71 1212.56,-434.71 1216.07,-424.71 1209.07,-424.71"></polygon>
<text text-anchor="middle" x="1275.67" y="-362.3" font-family="Times,serif" font-size="14.00">association</text>
</g>

<g id="edge18" class="edge">
<title>JAK3-&gt;STAT3</title>
<path fill="none" stroke="black" d="M1538.51,-290.15C1531.2,-292.69 1523.2,-295.2 1515.67,-297 1458.09,-310.77 1436.62,-288.5 1383.67,-315 1345.17,-334.27 1348.87,-356.58 1315.67,-384 1293.66,-402.18 1266.71,-419.98 1246.04,-432.81"></path>
<polygon fill="black" stroke="black" points="1244.01,-429.95 1237.31,-438.16 1247.67,-435.91 1244.01,-429.95"></polygon>
<text text-anchor="middle" x="1361.67" y="-362.3" font-family="Times,serif" font-size="14.00">bind</text>
</g>

<g id="edge67" class="edge">
<title>JAK3-&gt;TNF</title>
<path fill="none" stroke="black" d="M1537.35,-289.67C1514.14,-298.15 1484.07,-309.91 1480.67,-315 1476.97,-320.55 1476.97,-324.45 1480.67,-330 1490.61,-344.91 1508.24,-353.48 1524.79,-358.4"></path>
<polygon fill="black" stroke="black" points="1524.32,-361.89 1534.88,-361.02 1526.08,-355.12 1524.32,-361.89"></polygon>
<text text-anchor="middle" x="1520.67" y="-318.8" font-family="Times,serif" font-size="14.00">association</text>
</g>

<g id="edge4" class="edge">
<title>JAK3-&gt;STAT5A</title>
<path fill="none" stroke="black" d="M1594.64,-271.27C1623.12,-264.7 1667.06,-254.09 1704.67,-243 1724.49,-237.16 1728.93,-234.1 1748.67,-228 1774.67,-219.96 1803.95,-211.78 1827.74,-205.35"></path>
<polygon fill="black" stroke="black" points="1828.82,-208.68 1837.57,-202.7 1827,-201.92 1828.82,-208.68"></polygon>
<text text-anchor="middle" x="1788.67" y="-231.8" font-family="Times,serif" font-size="14.00">association</text>
</g>

<g id="edge41" class="edge">
<title>JAK3-&gt;STAT5A</title>
<path fill="none" stroke="black" d="M1597.58,-276.42C1659.14,-273.02 1789.09,-263.58 1828.67,-243 1840,-237.11 1849.98,-227.26 1857.72,-217.85"></path>
<polygon fill="black" stroke="black" points="1860.59,-219.86 1863.92,-209.8 1855.04,-215.58 1860.59,-219.86"></polygon>
<text text-anchor="middle" x="1863.67" y="-231.8" font-family="Times,serif" font-size="14.00">bind</text>
</g>

<g id="edge6" class="edge">
<title>JAK3-&gt;CXCR4</title>
<path fill="none" stroke="black" d="M1564.34,-260.89C1563.04,-238.48 1557.67,-199.1 1536.67,-174 1507.45,-139.07 1379.05,-119.61 1305.64,-111.16"></path>
<polygon fill="black" stroke="black" points="1305.99,-107.68 1295.66,-110.04 1305.21,-114.63 1305.99,-107.68"></polygon>
<text text-anchor="middle" x="1594.67" y="-188.3" font-family="Times,serif" font-size="14.00">association</text>
</g>

<g id="node8" class="node">
<title>STAT1</title>
<ellipse fill="lightgrey" stroke="black" cx="2279.67" cy="-192" rx="40.09" ry="18"></ellipse>
<text text-anchor="middle" x="2279.67" y="-188.3" font-family="Times,serif" font-size="14.00">STAT1</text>
</g>

<g id="edge9" class="edge">
<title>JAK3-&gt;STAT1</title>
<path fill="none" stroke="black" d="M1597.41,-275.42C1655.35,-270.64 1779.65,-259.36 1883.67,-243 1916.39,-237.85 1923.85,-232.45 1956.67,-228 2075.41,-211.9 2107.91,-232.15 2225.67,-210 2230.19,-209.15 2234.87,-208.04 2239.49,-206.8"></path>
<polygon fill="black" stroke="black" points="2240.81,-210.06 2249.44,-203.91 2238.86,-203.34 2240.81,-210.06"></polygon>
<text text-anchor="middle" x="1996.67" y="-231.8" font-family="Times,serif" font-size="14.00">association</text>
</g>

<g id="node9" class="node">
<title>STAT6</title>
<ellipse fill="lightgrey" stroke="black" cx="1706.67" cy="-192" rx="40.09" ry="18"></ellipse>
<text text-anchor="middle" x="1706.67" y="-188.3" font-family="Times,serif" font-size="14.00">STAT6</text>
</g>

<g id="edge11" class="edge">
<title>JAK3-&gt;STAT6</title>
<path fill="none" stroke="black" d="M1579.21,-262.45C1589.89,-251.7 1605.19,-237.66 1620.67,-228 1634.34,-219.47 1650.44,-212.27 1665,-206.66"></path>
<polygon fill="black" stroke="black" points="1666.62,-209.79 1674.78,-203.03 1664.18,-203.23 1666.62,-209.79"></polygon>
<text text-anchor="middle" x="1660.67" y="-231.8" font-family="Times,serif" font-size="14.00">association</text>
</g>

<g id="node22" class="node">
<title>TYK2</title>
<ellipse fill="lightgrey" stroke="black" cx="908.67" cy="-192" rx="35.19" ry="18"></ellipse>
<text text-anchor="middle" x="908.67" y="-188.3" font-family="Times,serif" font-size="14.00">TYK2</text>
</g>

<g id="edge64" class="edge">
<title>JAK3-&gt;TYK2</title>
<path fill="none" stroke="black" d="M1538.54,-267.73C1531.23,-265.19 1523.22,-262.71 1515.67,-261 1512.22,-260.22 1092.58,-213.47 953.14,-197.95"></path>
<polygon fill="black" stroke="black" points="953.15,-194.43 942.82,-196.8 952.38,-201.39 953.15,-194.43"></polygon>
<text text-anchor="middle" x="1390.67" y="-231.8" font-family="Times,serif" font-size="14.00">association</text>
</g>

<g id="edge40" class="edge">
<title>STAT5A-&gt;CD4</title>
<path fill="none" stroke="black" d="M1892.57,-208.61C1904.67,-218.87 1921.2,-232.31 1936.67,-243 1953.36,-254.53 2271.05,-358.36 2187.67,-471 2164.59,-502.19 2051.8,-498.84 2020.67,-522 2005.89,-533 1986.22,-576.64 1974.67,-591 1953.79,-616.96 1947.86,-623.19 1922.67,-645 1794.07,-756.39 1765.99,-811.81 1600.67,-852 1469.63,-883.86 1308.71,-887.7 1234.6,-887.57"></path>
<polygon fill="black" stroke="black" points="1234.32,-884.07 1224.31,-887.52 1234.29,-891.07 1234.32,-884.07"></polygon>
<text text-anchor="middle" x="2060.67" y="-536.3" font-family="Times,serif" font-size="14.00">association</text>
</g>

<g id="edge5" class="edge">
<title>STAT5A-&gt;CXCR4</title>
<path fill="none" stroke="black" d="M1842.73,-178.89C1810.24,-167.13 1758.21,-149.8 1711.67,-141 1567.29,-113.69 1393.48,-107.56 1307.4,-106.27"></path>
<polygon fill="black" stroke="black" points="1307.39,-102.77 1297.35,-106.14 1307.3,-109.77 1307.39,-102.77"></polygon>
<text text-anchor="middle" x="1841.67" y="-144.8" font-family="Times,serif" font-size="14.00">positive_correlation</text>
</g>

<g id="edge34" class="edge">
<title>CXCR4-&gt;CD4</title>
<path fill="none" stroke="black" d="M1210.22,-106.48C1105.72,-108.05 846.82,-114.6 818.67,-141 710.56,-242.39 870.42,-361.38 770.67,-471 747.89,-496.03 717.59,-462.39 696.67,-489 692.55,-494.24 695.34,-497.47 696.67,-504 701.89,-529.56 703.16,-537.81 719.67,-558 736.06,-578.04 744.21,-580.06 767.67,-591 794.84,-603.67 810.37,-588.97 832.67,-609 854.2,-628.33 856.67,-640.57 856.67,-669.5 856.67,-802 856.67,-802 856.67,-802 856.67,-826.65 860.57,-837.73 880.67,-852 923.43,-882.36 1077.84,-886.87 1152.58,-887.23"></path>
<polygon fill="black" stroke="black" points="1152.99,-890.73 1163,-887.25 1153.01,-883.73 1152.99,-890.73"></polygon>
<text text-anchor="middle" x="736.67" y="-492.8" font-family="Times,serif" font-size="14.00">association</text>
</g>

<g id="edge61" class="edge">
<title>CXCR4-&gt;CD4</title>
<path fill="none" stroke="black" d="M1209.81,-105.68C1101.98,-106.06 832.67,-114.66 832.67,-191 832.67,-410.5 832.67,-410.5 832.67,-410.5 832.67,-448.52 806.39,-451.77 798.67,-489 792.44,-519.08 792.39,-529.05 802.67,-558 808.66,-574.85 812.36,-579.07 825.67,-591 838.11,-602.15 846.64,-597.41 858.67,-609 881.21,-630.71 894.67,-638.21 894.67,-669.5 894.67,-802 894.67,-802 894.67,-802 894.67,-839.16 927.38,-837.69 961.67,-852 1024.93,-878.4 1105.26,-885.22 1152.9,-886.79"></path>
<polygon fill="black" stroke="black" points="1153.03,-890.29 1163.12,-887.06 1153.22,-883.3 1153.03,-890.29"></polygon>
<text text-anchor="middle" x="814.67" y="-492.8" font-family="Times,serif" font-size="14.00">bind</text>
</g>

<g id="edge33" class="edge">
<title>CXCR4-&gt;JAK3</title>
<path fill="none" stroke="black" d="M1295.51,-110.46C1338.47,-115.77 1401.66,-125.89 1420.67,-141 1447.13,-162.03 1430.14,-184.8 1452.67,-210 1473.82,-233.65 1505.18,-251.72 1529.33,-263.26"></path>
<polygon fill="black" stroke="black" points="1527.99,-266.49 1538.53,-267.51 1530.92,-260.14 1527.99,-266.49"></polygon>
<text text-anchor="middle" x="1492.67" y="-188.3" font-family="Times,serif" font-size="14.00">association</text>
</g>

<g id="edge7" class="edge">
<title>CXCR4-&gt;COVID-19</title>
<path fill="none" stroke="black" d="M1210.51,-102.54C1135.75,-99.52 977.52,-90.91 845.67,-69 793.35,-60.3 734.59,-45.03 694.19,-33.65"></path>
<polygon fill="black" stroke="black" points="694.9,-30.21 684.33,-30.84 692.99,-36.94 694.9,-30.21"></polygon>
<text text-anchor="middle" x="916.67" y="-57.8" font-family="Times,serif" font-size="14.00">positive_correlation</text>
</g>

<g id="edge8" class="edge">
<title>CXCR4-&gt;COVID-19</title>
<path fill="none" stroke="black" d="M1215.96,-95.87C1164.55,-85.04 1069.52,-65.85 987.67,-54 891.03,-40.01 778.28,-29.64 709.19,-23.95"></path>
<polygon fill="black" stroke="black" points="709.16,-20.44 698.9,-23.12 708.59,-27.42 709.16,-20.44"></polygon>
<text text-anchor="middle" x="1149.17" y="-57.8" font-family="Times,serif" font-size="14.00">negative_correlation</text>
</g>

<g id="edge35" class="edge">
<title>STAT1-&gt;STAT3</title>
<path fill="none" stroke="black" d="M2244.31,-200.92C2230.42,-203.93 2214.33,-207.28 2199.67,-210 2149.67,-219.29 2135.63,-214.24 2086.67,-228 2019.13,-246.98 1849.16,-303.81 1794.67,-348 1765.85,-371.37 1779.89,-398.59 1747.67,-417 1726.86,-428.89 1392.45,-444.36 1263.68,-449.91"></path>
<polygon fill="black" stroke="black" points="1263.52,-446.41 1253.68,-450.34 1263.82,-453.4 1263.52,-446.41"></polygon>
<text text-anchor="middle" x="1887.67" y="-318.8" font-family="Times,serif" font-size="14.00">association</text>
</g>

<g id="edge10" class="edge">
<title>STAT1-&gt;COVID-19</title>
<path fill="none" stroke="black" d="M2244.73,-182.99C2230.76,-179.94 2214.5,-176.58 2199.67,-174 2092.29,-155.33 2064.79,-154.78 1956.67,-141 1632.55,-99.68 1552.11,-83.15 1226.67,-54 1039.88,-37.27 818.62,-26.42 710.62,-21.71"></path>
<polygon fill="black" stroke="black" points="710.67,-18.21 700.53,-21.27 710.37,-25.2 710.67,-18.21"></polygon>
<text text-anchor="middle" x="1882.67" y="-101.3" font-family="Times,serif" font-size="14.00">positive_correlation</text>
</g>

<g id="edge12" class="edge">
<title>STAT6-&gt;CXCR4</title>
<path fill="none" stroke="black" d="M1680.77,-178.09C1656.16,-166.42 1617.8,-149.77 1582.67,-141 1487.58,-117.26 1373.1,-109.62 1307.32,-107.16"></path>
<polygon fill="black" stroke="black" points="1307.3,-103.66 1297.19,-106.81 1307.06,-110.65 1307.3,-103.66"></polygon>
<text text-anchor="middle" x="1667.67" y="-144.8" font-family="Times,serif" font-size="14.00">association</text>
</g>

<g id="edge53" class="edge">
<title>ACE2-&gt;CD4</title>
<path fill="none" stroke="black" d="M421.92,-383.34C449.77,-427.3 530.04,-551.13 608.67,-645 663.97,-711.01 686.17,-719.81 744.67,-783 772.28,-812.82 768.48,-833.51 804.67,-852 864.65,-882.65 1065.82,-886.81 1152.91,-887.13"></path>
<polygon fill="black" stroke="black" points="1152.94,-890.63 1162.95,-887.15 1152.96,-883.63 1152.94,-890.63"></polygon>
<text text-anchor="middle" x="648.67" y="-623.3" font-family="Times,serif" font-size="14.00">association</text>
</g>

<g id="edge25" class="edge">
<title>ACE2-&gt;COVID-19</title>
<path fill="none" stroke="black" d="M406.84,-347.9C402.46,-330.85 396.67,-303.83 396.67,-280 396.67,-280 396.67,-280 396.67,-104 396.67,-64.61 510.07,-39.62 583.51,-27.57"></path>
<polygon fill="black" stroke="black" points="584.27,-31 593.59,-25.96 583.16,-24.08 584.27,-31"></polygon>
<text text-anchor="middle" x="467.67" y="-188.3" font-family="Times,serif" font-size="14.00">positive_correlation</text>
</g>

<g id="edge77" class="edge">
<title>IFNG-&gt;CD4</title>
<path fill="none" stroke="black" d="M1406.87,-731.24C1385.1,-758.73 1342.38,-812.16 1333.67,-819 1301.7,-844.12 1258.94,-863.21 1229.12,-874.67"></path>
<polygon fill="black" stroke="black" points="1227.67,-871.48 1219.54,-878.26 1230.13,-878.03 1227.67,-871.48"></polygon>
<text text-anchor="middle" x="1404.67" y="-797.3" font-family="Times,serif" font-size="14.00">association</text>
</g>

<g id="edge39" class="edge">
<title>IFNG-&gt;STAT3</title>
<path fill="none" stroke="black" d="M1388.55,-705.13C1340.91,-691.22 1251.44,-657.26 1213.67,-591 1208.41,-581.76 1210.5,-518.57 1212.24,-481.31"></path>
<polygon fill="black" stroke="black" points="1215.74,-481.28 1212.73,-471.12 1208.75,-480.93 1215.74,-481.28"></polygon>
<text text-anchor="middle" x="1253.67" y="-579.8" font-family="Times,serif" font-size="14.00">association</text>
</g>

<g id="edge51" class="edge">
<title>IFNG-&gt;TNF</title>
<path fill="none" stroke="black" d="M1430.25,-696.75C1433.64,-691.01 1437.16,-684.38 1439.67,-678 1468.79,-604.08 1463.12,-581.49 1480.67,-504 1487.6,-473.39 1480.63,-462.55 1495.67,-435 1506.01,-416.07 1523.3,-399.04 1537.99,-386.76"></path>
<polygon fill="black" stroke="black" points="1540.24,-389.44 1545.83,-380.44 1535.85,-383.99 1540.24,-389.44"></polygon>
<text text-anchor="middle" x="1516.67" y="-536.3" font-family="Times,serif" font-size="14.00">association</text>
</g>

<g id="edge48" class="edge">
<title>IFNG-&gt;JAK3</title>
<path fill="none" stroke="black" d="M1422.49,-695.92C1427.42,-661.6 1434.97,-582.38 1411.67,-522 1407.92,-512.28 1400.22,-513.79 1396.67,-504 1394.4,-497.73 1396.52,-495.66 1396.67,-489 1397.56,-450.3 1386.6,-438.06 1400.67,-402 1405.26,-390.24 1463.4,-322.33 1473.67,-315 1489.1,-303.98 1508.45,-295.91 1525.34,-290.31"></path>
<polygon fill="black" stroke="black" points="1526.45,-293.63 1534.95,-287.29 1524.36,-286.95 1526.45,-293.63"></polygon>
<text text-anchor="middle" x="1436.67" y="-492.8" font-family="Times,serif" font-size="14.00">association</text>
</g>

<g id="edge26" class="edge">
<title>IFNG-&gt;STAT5A</title>
<path fill="none" stroke="black" d="M1455.22,-711.61C1529.57,-708.31 1699.06,-698.72 1752.67,-678 1775.81,-669.06 1781.9,-664.14 1797.67,-645 1852.04,-579.02 1860.27,-554.26 1879.67,-471 1902.68,-372.3 1882.78,-344.35 1883.67,-243 1883.73,-236.33 1884.51,-234.61 1883.67,-228 1883.33,-225.29 1882.84,-222.49 1882.27,-219.71"></path>
<polygon fill="black" stroke="black" points="1885.66,-218.84 1879.94,-209.92 1878.85,-220.46 1885.66,-218.84"></polygon>
<text text-anchor="middle" x="1926.67" y="-449.3" font-family="Times,serif" font-size="14.00">association</text>
</g>

<g id="edge23" class="edge">
<title>IFNG-&gt;STAT1</title>
<path fill="none" stroke="black" d="M1455.57,-713.78C1521.38,-714.29 1665.21,-711.08 1780.67,-678 1864.17,-654.08 1892.98,-651.11 1955.67,-591 1980.94,-566.77 1966.44,-544 1993.67,-522 2015.33,-504.51 2031.64,-521.02 2053.67,-504 2103.71,-465.35 2160.92,-309.34 2201.67,-261 2216.46,-243.45 2235.91,-226.49 2251.69,-213.89"></path>
<polygon fill="black" stroke="black" points="2253.85,-216.65 2259.56,-207.72 2249.53,-211.14 2253.85,-216.65"></polygon>
<text text-anchor="middle" x="2143.67" y="-449.3" font-family="Times,serif" font-size="14.00">association</text>
</g>

<g id="edge27" class="edge">
<title>IFNG-&gt;STAT6</title>
<path fill="none" stroke="black" d="M1455.43,-712.25C1547.53,-709.35 1785.67,-695.35 1785.67,-628 1785.67,-628 1785.67,-628 1785.67,-495.5 1785.67,-467.9 1789.33,-460.59 1799.67,-435 1822.23,-379.15 1893.58,-366.7 1862.67,-315 1827.98,-256.97 1774.56,-292.65 1728.67,-243 1722.63,-236.46 1718.06,-228 1714.7,-219.9"></path>
<polygon fill="black" stroke="black" points="1717.92,-218.53 1711.18,-210.36 1711.35,-220.95 1717.92,-218.53"></polygon>
<text text-anchor="middle" x="1839.67" y="-449.3" font-family="Times,serif" font-size="14.00">association</text>
</g>

<g id="edge24" class="edge">
<title>IFNG-&gt;ACE2</title>
<path fill="none" stroke="black" d="M1385.01,-709.34C1342.18,-704.36 1267.28,-694.18 1204.67,-678 1162.61,-667.13 1152.43,-662.51 1112.67,-645 1036.8,-611.59 1019.99,-598.54 947.67,-558 895.35,-528.67 888.96,-506.8 831.67,-489 715.98,-453.04 672.58,-514.94 559.67,-471 514,-453.23 514.25,-429.47 473.67,-402 464.6,-395.86 454.37,-389.77 444.88,-384.44"></path>
<polygon fill="black" stroke="black" points="446.51,-381.34 436.07,-379.58 443.13,-387.47 446.51,-381.34"></polygon>
<text text-anchor="middle" x="987.67" y="-536.3" font-family="Times,serif" font-size="14.00">association</text>
</g>

<g id="node12" class="node">
<title>IL1B</title>
<ellipse fill="lightgrey" stroke="black" cx="1725.67" cy="-627" rx="32.49" ry="18"></ellipse>
<text text-anchor="middle" x="1725.67" y="-623.3" font-family="Times,serif" font-size="14.00">IL1B</text>
</g>

<g id="edge20" class="edge">
<title>IFNG-&gt;IL1B</title>
<path fill="none" stroke="black" d="M1451.58,-705.72C1500.9,-694.24 1598.45,-670.56 1679.67,-645 1683.02,-643.95 1686.49,-642.79 1689.94,-641.59"></path>
<polygon fill="black" stroke="black" points="1691.31,-644.82 1699.55,-638.16 1688.96,-638.23 1691.31,-644.82"></polygon>
<text text-anchor="middle" x="1655.67" y="-666.8" font-family="Times,serif" font-size="14.00">association</text>
</g>

<g id="node15" class="node">
<title>IL10</title>
<ellipse fill="lightgrey" stroke="black" cx="1039.67" cy="-366" rx="31.7" ry="18"></ellipse>
<text text-anchor="middle" x="1039.67" y="-362.3" font-family="Times,serif" font-size="14.00">IL10</text>
</g>

<g id="edge49" class="edge">
<title>IFNG-&gt;IL10</title>
<path fill="none" stroke="black" d="M1386.82,-706.54C1359.3,-700.63 1319.24,-690.86 1285.67,-678 1202.66,-646.21 1177.95,-629.89 1125.67,-558 1087.25,-505.18 1060.41,-432.45 1047.81,-393.76"></path>
<polygon fill="black" stroke="black" points="1051.01,-392.26 1044.64,-383.79 1044.34,-394.38 1051.01,-392.26"></polygon>
<text text-anchor="middle" x="1165.67" y="-536.3" font-family="Times,serif" font-size="14.00">association</text>
</g>

<g id="edge78" class="edge">
<title>IFNG-&gt;TYK2</title>
<path fill="none" stroke="black" d="M1385.67,-708.11C1350.07,-702.56 1292.77,-692.35 1244.67,-678 1207.03,-666.77 1195.74,-666.2 1162.67,-645 1150.83,-637.41 985.78,-483.14 978.67,-471 930.17,-388.21 915.02,-272.46 910.5,-220.34"></path>
<polygon fill="black" stroke="black" points="913.97,-219.9 909.68,-210.22 906.99,-220.46 913.97,-219.9"></polygon>
<text text-anchor="middle" x="1018.67" y="-449.3" font-family="Times,serif" font-size="14.00">association</text>
</g>

<g id="edge38" class="edge">
<title>IL1B-&gt;STAT3</title>
<path fill="none" stroke="black" d="M1700.23,-615.31C1693.63,-612.89 1686.47,-610.58 1679.67,-609 1603.95,-591.39 1582.29,-604.2 1505.67,-591 1444.38,-580.44 1428.08,-579.38 1369.67,-558 1319.28,-539.56 1304.88,-535.82 1261.67,-504 1251.48,-496.49 1241.56,-486.72 1233.41,-477.8"></path>
<polygon fill="black" stroke="black" points="1235.99,-475.43 1226.74,-470.26 1230.75,-480.07 1235.99,-475.43"></polygon>
<text text-anchor="middle" x="1409.67" y="-536.3" font-family="Times,serif" font-size="14.00">association</text>
</g>

<g id="edge45" class="edge">
<title>IL1B-&gt;TNF</title>
<path fill="none" stroke="black" d="M1707.89,-611.69C1700.71,-605.6 1692.52,-598.24 1685.67,-591 1658.9,-562.72 1663.15,-544.92 1631.67,-522 1612.92,-508.34 1596.59,-522.56 1582.67,-504 1555.4,-467.65 1584.1,-446.65 1575.67,-402 1575.16,-399.28 1574.5,-396.47 1573.76,-393.68"></path>
<polygon fill="black" stroke="black" points="1577.06,-392.48 1570.86,-383.88 1570.35,-394.47 1577.06,-392.48"></polygon>
<text text-anchor="middle" x="1622.67" y="-492.8" font-family="Times,serif" font-size="14.00">association</text>
</g>

<g id="node13" class="node">
<title>IL6</title>
<ellipse fill="lightgrey" stroke="black" cx="1720.67" cy="-540" rx="27" ry="18"></ellipse>
<text text-anchor="middle" x="1720.67" y="-536.3" font-family="Times,serif" font-size="14.00">IL6</text>
</g>

<g id="edge21" class="edge">
<title>IL1B-&gt;IL6</title>
<path fill="none" stroke="black" d="M1707.09,-611.93C1700.98,-606.19 1694.92,-599.01 1691.67,-591 1687.73,-581.28 1691.84,-571.15 1698.09,-562.58"></path>
<polygon fill="black" stroke="black" points="1700.8,-564.81 1704.55,-554.9 1695.44,-560.3 1700.8,-564.81"></polygon>
<text text-anchor="middle" x="1731.67" y="-579.8" font-family="Times,serif" font-size="14.00">association</text>
</g>

<g id="edge37" class="edge">
<title>IL6-&gt;STAT3</title>
<path fill="none" stroke="black" d="M1694.12,-535.99C1661.54,-532.36 1604.59,-526.23 1555.67,-522 1498.41,-517.05 1352.52,-521.16 1297.67,-504 1277.31,-497.63 1256.69,-485.46 1240.97,-474.72"></path>
<polygon fill="black" stroke="black" points="1242.97,-471.84 1232.78,-468.94 1238.94,-477.57 1242.97,-471.84"></polygon>
<text text-anchor="middle" x="1337.67" y="-492.8" font-family="Times,serif" font-size="14.00">association</text>
</g>

<g id="edge46" class="edge">
<title>IL6-&gt;TNF</title>
<path fill="none" stroke="black" d="M1705.68,-524.83C1694.92,-514.74 1680.03,-500.9 1666.67,-489 1657.49,-480.82 1653.63,-480.37 1645.67,-471 1622.42,-443.65 1626.61,-429.62 1603.67,-402 1599.55,-397.04 1594.72,-392.14 1589.9,-387.66"></path>
<polygon fill="black" stroke="black" points="1592.21,-385.03 1582.41,-380.99 1587.55,-390.25 1592.21,-385.03"></polygon>
<text text-anchor="middle" x="1685.67" y="-449.3" font-family="Times,serif" font-size="14.00">association</text>
</g>

<g id="edge47" class="edge">
<title>IL6-&gt;JAK3</title>
<path fill="none" stroke="black" d="M1726.13,-522.2C1732.07,-500.82 1739.06,-463.26 1725.67,-435 1720.26,-423.58 1711.71,-426.75 1703.67,-417 1670.9,-377.27 1686.86,-349.56 1648.67,-315 1636.18,-303.7 1619.52,-295.74 1604.33,-290.3"></path>
<polygon fill="black" stroke="black" points="1605.21,-286.9 1594.62,-287.07 1603.01,-293.55 1605.21,-286.9"></polygon>
<text text-anchor="middle" x="1743.67" y="-405.8" font-family="Times,serif" font-size="14.00">association</text>
</g>

<g id="edge22" class="edge">
<title>IL6-&gt;STAT1</title>
<path fill="none" stroke="black" d="M1747.71,-539.8C1800.29,-539.88 1917.13,-532.59 1985.67,-471 2029.08,-431.99 2003.25,-398.98 2031.67,-348 2064.53,-289.07 2067.75,-264.23 2124.67,-228 2127.04,-226.49 2189.36,-212.69 2234.24,-202.87"></path>
<polygon fill="black" stroke="black" points="2235.06,-206.28 2244.09,-200.72 2233.57,-199.44 2235.06,-206.28"></polygon>
<text text-anchor="middle" x="2071.67" y="-362.3" font-family="Times,serif" font-size="14.00">association</text>
</g>

<g id="edge44" class="edge">
<title>CD8B-&gt;TNF</title>
<path fill="none" stroke="black" d="M1527.08,-782.97C1520.41,-736.82 1504.6,-610.53 1525.67,-576 1534.78,-561.07 1551.56,-572.93 1560.67,-558 1569.01,-544.34 1567.68,-536.38 1560.67,-522 1554.99,-510.33 1544.05,-515.31 1537.67,-504 1530.41,-491.13 1534.56,-485.75 1533.67,-471 1532.71,-455.03 1530.28,-450.64 1533.67,-435 1536.92,-420.05 1543.75,-404.44 1550.18,-391.95"></path>
<polygon fill="black" stroke="black" points="1553.3,-393.54 1554.95,-383.08 1547.13,-390.23 1553.3,-393.54"></polygon>
<text text-anchor="middle" x="1565.67" y="-579.8" font-family="Times,serif" font-size="14.00">association</text>
</g>

<g id="edge29" class="edge">
<title>CD8B-&gt;IFNG</title>
<path fill="none" stroke="black" d="M1500.25,-789.72C1476.12,-781.07 1445.21,-769.44 1440.67,-765 1434.26,-758.73 1429.71,-750.2 1426.53,-741.97"></path>
<polygon fill="black" stroke="black" points="1429.77,-740.62 1423.29,-732.24 1423.12,-742.83 1429.77,-740.62"></polygon>
<text text-anchor="middle" x="1480.67" y="-753.8" font-family="Times,serif" font-size="14.00">association</text>
</g>

<g id="edge50" class="edge">
<title>IL10-&gt;JAK3</title>
<path fill="none" stroke="black" d="M1064.73,-354.85C1095.31,-342.97 1148.85,-323.82 1196.67,-315 1336.32,-289.25 1376.36,-324.54 1515.67,-297 1520.11,-296.12 1524.7,-294.93 1529.21,-293.59"></path>
<polygon fill="black" stroke="black" points="1530.42,-296.87 1538.85,-290.46 1528.26,-290.22 1530.42,-296.87"></polygon>
<text text-anchor="middle" x="1236.67" y="-318.8" font-family="Times,serif" font-size="14.00">association</text>
</g>

<g id="edge79" class="edge">
<title>IL10-&gt;TYK2</title>
<path fill="none" stroke="black" d="M1022.27,-350.81C1007,-337.82 984.79,-317.55 968.67,-297 949.28,-272.28 931.93,-240.63 920.93,-218.77"></path>
<polygon fill="black" stroke="black" points="924.05,-217.17 916.48,-209.76 917.78,-220.28 924.05,-217.17"></polygon>
<text text-anchor="middle" x="1008.67" y="-275.3" font-family="Times,serif" font-size="14.00">association</text>
</g>

<g id="node16" class="node">
<title>CCR5</title>
<ellipse fill="lightgrey" stroke="black" cx="1444.67" cy="-975" rx="37.09" ry="18"></ellipse>
<text text-anchor="middle" x="1444.67" y="-971.3" font-family="Times,serif" font-size="14.00">CCR5</text>
</g>

<g id="edge52" class="edge">
<title>CCR5-&gt;CD4</title>
<path fill="none" stroke="black" d="M1441.58,-957C1438.64,-945.87 1433.06,-931.96 1422.67,-924 1393.9,-901.95 1292.08,-893.6 1234.37,-890.59"></path>
<polygon fill="black" stroke="black" points="1234.3,-887.08 1224.14,-890.08 1233.95,-894.07 1234.3,-887.08"></polygon>
<text text-anchor="middle" x="1449.67" y="-927.8" font-family="Times,serif" font-size="14.00">bind</text>
</g>

<g id="edge57" class="edge">
<title>CCR5-&gt;CD4</title>
<path fill="none" stroke="black" d="M1412.13,-966C1390.62,-960.06 1362.18,-950.93 1338.67,-939 1328.44,-933.81 1328.01,-928.96 1317.67,-924 1290.47,-910.94 1257.5,-901.92 1232.4,-896.32"></path>
<polygon fill="black" stroke="black" points="1233.02,-892.87 1222.5,-894.19 1231.55,-899.71 1233.02,-892.87"></polygon>
<text text-anchor="middle" x="1378.67" y="-927.8" font-family="Times,serif" font-size="14.00">association</text>
</g>

<g id="edge72" class="edge">
<title>CCR5-&gt;IL6</title>
<path fill="none" stroke="black" d="M1476.23,-965.39C1553.23,-944.07 1748.55,-887.93 1805.67,-852 1897.19,-794.44 1934.88,-778.13 1975.67,-678 1988.15,-647.38 2008.46,-623.5 1958.67,-576 1930.59,-549.21 1817.86,-542.87 1758.17,-541.41"></path>
<polygon fill="black" stroke="black" points="1758.1,-537.91 1748.03,-541.2 1757.95,-544.91 1758.1,-537.91"></polygon>
<text text-anchor="middle" x="1976.67" y="-753.8" font-family="Times,serif" font-size="14.00">association</text>
</g>

<g id="node17" class="node">
<title>S</title>
<ellipse fill="lightgrey" stroke="black" cx="283.67" cy="-975" rx="27" ry="18"></ellipse>
<text text-anchor="middle" x="283.67" y="-971.3" font-family="Times,serif" font-size="14.00">S</text>
</g>

<g id="edge54" class="edge">
<title>S-&gt;CD4</title>
<path fill="none" stroke="black" d="M310.41,-971.5C439.56,-959.44 998.78,-907.2 1153.73,-892.73"></path>
<polygon fill="black" stroke="black" points="1154.13,-896.21 1163.76,-891.79 1153.48,-889.24 1154.13,-896.21"></polygon>
<text text-anchor="middle" x="809.67" y="-927.8" font-family="Times,serif" font-size="14.00">bind</text>
</g>

<g id="edge59" class="edge">
<title>S-&gt;CD4</title>
<path fill="none" stroke="black" d="M309.44,-969.06C363.31,-958.93 491.83,-935.77 600.67,-924 807.47,-901.64 1056.49,-892.79 1152.85,-890.04"></path>
<polygon fill="black" stroke="black" points="1153.13,-893.53 1163.03,-889.75 1152.94,-886.53 1153.13,-893.53"></polygon>
<text text-anchor="middle" x="640.67" y="-927.8" font-family="Times,serif" font-size="14.00">association</text>
</g>

<g id="edge73" class="edge">
<title>S-&gt;ACE2</title>
<path fill="none" stroke="black" d="M264,-962.29C242.68,-947.94 211.67,-921.49 211.67,-889 211.67,-889 211.67,-889 211.67,-452 211.67,-385.8 305.63,-370.42 364.74,-367.29"></path>
<polygon fill="black" stroke="black" points="365.15,-370.78 374.99,-366.85 364.85,-363.78 365.15,-370.78"></polygon>
<text text-anchor="middle" x="227.67" y="-666.8" font-family="Times,serif" font-size="14.00">bind</text>
</g>

<g id="edge74" class="edge">
<title>S-&gt;ACE2</title>
<path fill="none" stroke="black" d="M256.71,-972.91C207.62,-969.32 108.67,-954.02 108.67,-889 108.67,-889 108.67,-889 108.67,-713 108.67,-690.77 105.38,-684.81 109.67,-663 134.03,-539.14 114.86,-469.27 221.67,-402 245.14,-387.22 317.57,-376.93 365.91,-371.5"></path>
<polygon fill="black" stroke="black" points="366.58,-374.95 376.14,-370.38 365.82,-367.99 366.58,-374.95"></polygon>
<text text-anchor="middle" x="149.67" y="-666.8" font-family="Times,serif" font-size="14.00">association</text>
</g>

<g id="node18" class="node">
<title>MICA</title>
<ellipse fill="lightgrey" stroke="black" cx="1065.67" cy="-1236" rx="36.29" ry="18"></ellipse>
<text text-anchor="middle" x="1065.67" y="-1232.3" font-family="Times,serif" font-size="14.00">MICA</text>
</g>

<g id="edge55" class="edge">
<title>MICA-&gt;CD4</title>
<path fill="none" stroke="black" d="M1029.61,-1232.87C979.18,-1227.72 893.67,-1210.12 893.67,-1150 893.67,-1150 893.67,-1150 893.67,-974 893.67,-920.65 1071.52,-899.06 1153.35,-891.95"></path>
<polygon fill="black" stroke="black" points="1153.86,-895.42 1163.53,-891.1 1153.28,-888.45 1153.86,-895.42"></polygon>
<text text-anchor="middle" x="933.67" y="-1058.3" font-family="Times,serif" font-size="14.00">association</text>
</g>

<g id="edge76" class="edge">
<title>MICA-&gt;IFNG</title>
<path fill="none" stroke="black" d="M1076.33,-1218.79C1109.84,-1167.83 1211.25,-1014.12 1216.67,-1011 1269.58,-980.59 1446.51,-1035.11 1490.67,-993 1541.11,-944.9 1537.84,-899.34 1506.67,-837 1500.71,-825.07 1492.62,-827.88 1482.67,-819 1466.25,-804.34 1464.94,-797.82 1448.67,-783 1439.08,-774.26 1432.04,-776.31 1425.67,-765 1421.84,-758.19 1419.95,-750.04 1419.11,-742.32"></path>
<polygon fill="black" stroke="black" points="1422.6,-742.01 1418.55,-732.22 1415.61,-742.4 1422.6,-742.01"></polygon>
<text text-anchor="middle" x="1558.67" y="-971.3" font-family="Times,serif" font-size="14.00">association</text>
</g>

<g id="node19" class="node">
<title>HLA-B</title>
<ellipse fill="lightgrey" stroke="black" cx="1259.67" cy="-1149" rx="40.09" ry="18"></ellipse>
<text text-anchor="middle" x="1259.67" y="-1145.3" font-family="Times,serif" font-size="14.00">HLA-B</text>
</g>

<g id="edge81" class="edge">
<title>MICA-&gt;HLA-B</title>
<path fill="none" stroke="black" d="M1090.93,-1223.01C1104.14,-1216.53 1120.48,-1208.19 1134.67,-1200 1145.24,-1193.9 1146.7,-1190.35 1157.67,-1185 1176.35,-1175.88 1198.02,-1168.08 1216.57,-1162.18"></path>
<polygon fill="black" stroke="black" points="1217.71,-1165.49 1226.23,-1159.19 1215.64,-1158.81 1217.71,-1165.49"></polygon>
<text text-anchor="middle" x="1197.67" y="-1188.8" font-family="Times,serif" font-size="14.00">association</text>
</g>

<g id="edge82" class="edge">
<title>MICA-&gt;HLA-B</title>
<path fill="none" stroke="black" d="M1101.34,-1231.61C1145.4,-1226.77 1217.09,-1216.59 1237.67,-1200 1244.89,-1194.18 1249.8,-1185.52 1253.12,-1177.03"></path>
<polygon fill="black" stroke="black" points="1256.51,-1177.92 1256.32,-1167.32 1249.86,-1175.72 1256.51,-1177.92"></polygon>
<text text-anchor="middle" x="1264.67" y="-1188.8" font-family="Times,serif" font-size="14.00">bind</text>
</g>

<g id="node21" class="node">
<title>MICB</title>
<ellipse fill="lightgrey" stroke="black" cx="1028.67" cy="-1062" rx="37.09" ry="18"></ellipse>
<text text-anchor="middle" x="1028.67" y="-1058.3" font-family="Times,serif" font-size="14.00">MICB</text>
</g>

<g id="edge68" class="edge">
<title>MICA-&gt;MICB</title>
<path fill="none" stroke="black" d="M1034.41,-1226.58C1006.84,-1217.21 968.75,-1199 953.67,-1167 946.85,-1152.53 948.16,-1146.02 953.67,-1131 961.3,-1110.21 979.6,-1093.4 996.21,-1081.71"></path>
<polygon fill="black" stroke="black" points="998.3,-1084.52 1004.68,-1076.06 994.41,-1078.7 998.3,-1084.52"></polygon>
<text text-anchor="middle" x="969.67" y="-1145.3" font-family="Times,serif" font-size="14.00">bind</text>
</g>

<g id="edge70" class="edge">
<title>MICA-&gt;MICB</title>
<path fill="none" stroke="black" d="M1054.27,-1218.87C1045.65,-1205.63 1034.5,-1186.03 1029.67,-1167 1023.25,-1141.66 1023.77,-1111.72 1025.44,-1090.49"></path>
<polygon fill="black" stroke="black" points="1028.95,-1090.53 1026.38,-1080.25 1021.98,-1089.89 1028.95,-1090.53"></polygon>
<text text-anchor="middle" x="1069.67" y="-1145.3" font-family="Times,serif" font-size="14.00">association</text>
</g>

<g id="edge56" class="edge">
<title>HLA-B-&gt;CD4</title>
<path fill="none" stroke="black" d="M1254.6,-1130.88C1246.24,-1102.39 1229.23,-1043.4 1216.67,-993 1210.17,-966.9 1203.63,-936.9 1199.2,-915.84"></path>
<polygon fill="black" stroke="black" points="1202.61,-915.07 1197.14,-906 1195.76,-916.5 1202.61,-915.07"></polygon>
<text text-anchor="middle" x="1264.67" y="-1014.8" font-family="Times,serif" font-size="14.00">association</text>
</g>

<g id="edge75" class="edge">
<title>HLA-B-&gt;TNF</title>
<path fill="none" stroke="black" d="M1300.01,-1147.31C1509.27,-1143.44 2461.67,-1122.59 2461.67,-1063 2461.67,-1063 2461.67,-1063 2461.67,-669.5 2461.67,-518.21 2213.95,-444.84 2187.67,-435 2080.11,-394.71 1726.23,-374.63 1605.47,-368.82"></path>
<polygon fill="black" stroke="black" points="1605.34,-365.31 1595.19,-368.34 1605.01,-372.3 1605.34,-365.31"></polygon>
<text text-anchor="middle" x="2501.67" y="-753.8" font-family="Times,serif" font-size="14.00">association</text>
</g>

<g id="edge80" class="edge">
<title>HLA-B-&gt;CXCR4</title>
<path fill="none" stroke="black" d="M1238.02,-1133.61C1204.32,-1111.73 1136.73,-1069.9 1074.67,-1044 918.11,-978.65 858.94,-1015.81 707.67,-939 660.23,-914.91 353.05,-692.8 329.67,-645 322.64,-630.63 323.97,-623.95 329.67,-609 382.31,-470.99 665.37,-197.91 801.67,-141 872.24,-111.53 1096.12,-106.64 1199.9,-105.98"></path>
<polygon fill="black" stroke="black" points="1200.17,-109.48 1210.15,-105.93 1200.14,-102.48 1200.17,-109.48"></polygon>
<text text-anchor="middle" x="369.67" y="-623.3" font-family="Times,serif" font-size="14.00">association</text>
</g>

<g id="edge71" class="edge">
<title>HLA-B-&gt;STAT1</title>
<path fill="none" stroke="black" d="M1299.91,-1147.52C1518.83,-1144.64 2556.67,-1127.59 2556.67,-1063 2556.67,-1063 2556.67,-1063 2556.67,-278 2556.67,-230.94 2408.71,-207.27 2329.07,-197.93"></path>
<polygon fill="black" stroke="black" points="2329.1,-194.41 2318.77,-196.76 2328.31,-201.37 2329.1,-194.41"></polygon>
<text text-anchor="middle" x="2596.67" y="-666.8" font-family="Times,serif" font-size="14.00">association</text>
</g>

<g id="edge66" class="edge">
<title>HLA-B-&gt;IL1B</title>
<path fill="none" stroke="black" d="M1300.15,-1147.53C1396.42,-1144.23 1641.5,-1122.79 1782.67,-993 1793.47,-983.07 1822.65,-882.28 1830.67,-870 1869.43,-810.67 1964.56,-814.71 1935.67,-750 1905.46,-682.32 1817.73,-650.06 1765.71,-636.49"></path>
<polygon fill="black" stroke="black" points="1766.36,-633.05 1755.81,-634.02 1764.67,-639.84 1766.36,-633.05"></polygon>
<text text-anchor="middle" x="1870.67" y="-884.3" font-family="Times,serif" font-size="14.00">association</text>
</g>

<g id="edge69" class="edge">
<title>HLA-B-&gt;MICB</title>
<path fill="none" stroke="black" d="M1220.49,-1144.37C1171.5,-1139.24 1090.96,-1128.72 1065.67,-1113 1055.94,-1106.95 1047.92,-1097.33 1041.86,-1088.13"></path>
<polygon fill="black" stroke="black" points="1044.85,-1086.31 1036.67,-1079.58 1038.87,-1089.94 1044.85,-1086.31"></polygon>
<text text-anchor="middle" x="1105.67" y="-1101.8" font-family="Times,serif" font-size="14.00">association</text>
</g>

<g id="node23" class="node">
<title>IFNA1</title>
<ellipse fill="lightgrey" stroke="black" cx="1924.67" cy="-1062" rx="40.09" ry="18"></ellipse>
<text text-anchor="middle" x="1924.67" y="-1058.3" font-family="Times,serif" font-size="14.00">IFNA1</text>
</g>

<g id="edge83" class="edge">
<title>HLA-B-&gt;IFNA1</title>
<path fill="none" stroke="black" d="M1299.91,-1147.26C1409.87,-1144.95 1713.69,-1136.57 1810.67,-1113 1839.15,-1106.08 1869.45,-1092.46 1891.65,-1081.18"></path>
<polygon fill="black" stroke="black" points="1893.38,-1084.23 1900.64,-1076.51 1890.15,-1078.01 1893.38,-1084.23"></polygon>
<text text-anchor="middle" x="1892.67" y="-1101.8" font-family="Times,serif" font-size="14.00">association</text>
</g>

<g id="node20" class="node">
<title>HLA-C</title>
<ellipse fill="lightgrey" stroke="black" cx="1265.67" cy="-975" rx="40.09" ry="18"></ellipse>
<text text-anchor="middle" x="1265.67" y="-971.3" font-family="Times,serif" font-size="14.00">HLA-C</text>
</g>

<g id="edge58" class="edge">
<title>HLA-C-&gt;CD4</title>
<path fill="none" stroke="black" d="M1252.13,-958.01C1241.13,-945.03 1225.48,-926.55 1213.13,-911.98"></path>
<polygon fill="black" stroke="black" points="1215.8,-909.71 1206.67,-904.34 1210.46,-914.24 1215.8,-909.71"></polygon>
<text text-anchor="middle" x="1273.67" y="-927.8" font-family="Times,serif" font-size="14.00">association</text>
</g>

<g id="edge60" class="edge">
<title>MICB-&gt;CD4</title>
<path fill="none" stroke="black" d="M1038.49,-1044.35C1051.67,-1022.79 1076.59,-984.69 1103.67,-957 1122.23,-938.02 1146.36,-920.08 1164.97,-907.4"></path>
<polygon fill="black" stroke="black" points="1166.99,-910.26 1173.35,-901.78 1163.09,-904.44 1166.99,-910.26"></polygon>
<text text-anchor="middle" x="1143.67" y="-971.3" font-family="Times,serif" font-size="14.00">association</text>
</g>

<g id="edge65" class="edge">
<title>TYK2-&gt;CD4</title>
<path fill="none" stroke="black" d="M896.65,-208.98C885.52,-225.4 870.67,-252.14 870.67,-278 870.67,-454 870.67,-454 870.67,-454 870.67,-481.38 853.64,-484.25 834.67,-504 825.68,-513.36 817.36,-510.33 811.67,-522 804.66,-536.38 803.4,-544.3 811.67,-558 836.85,-599.69 876.11,-572.78 908.67,-609 928.01,-630.51 932.67,-640.57 932.67,-669.5 932.67,-802 932.67,-802 932.67,-802 932.67,-847.93 1080.66,-872.89 1153.77,-882.41"></path>
<polygon fill="black" stroke="black" points="1153.63,-885.92 1163.99,-883.71 1154.5,-878.98 1153.63,-885.92"></polygon>
<text text-anchor="middle" x="851.67" y="-536.3" font-family="Times,serif" font-size="14.00">association</text>
</g>

<g id="edge93" class="edge">
<title>IFNA1-&gt;CD4</title>
<path fill="none" stroke="black" d="M1895.99,-1049.3C1844.02,-1028.44 1730.49,-984.46 1631.67,-957 1560.87,-937.33 1542.17,-935.96 1469.67,-924 1386.12,-910.21 1287.57,-898.9 1233.74,-893.13"></path>
<polygon fill="black" stroke="black" points="1233.91,-889.63 1223.59,-892.05 1233.17,-896.59 1233.91,-889.63"></polygon>
<text text-anchor="middle" x="1784.67" y="-971.3" font-family="Times,serif" font-size="14.00">association</text>
</g>

<g id="edge84" class="edge">
<title>IFNA1-&gt;STAT1</title>
<path fill="none" stroke="black" d="M1965.03,-1061.49C2071.82,-1061.69 2353.67,-1054.77 2353.67,-976 2353.67,-976 2353.67,-976 2353.67,-669.5 2353.67,-553.16 2391.67,-526.84 2391.67,-410.5 2391.67,-410.5 2391.67,-410.5 2391.67,-278 2391.67,-241.72 2353.92,-218.92 2322.25,-206.17"></path>
<polygon fill="black" stroke="black" points="2323.26,-202.81 2312.67,-202.53 2320.78,-209.35 2323.26,-202.81"></polygon>
<text text-anchor="middle" x="2396.67" y="-623.3" font-family="Times,serif" font-size="14.00">association</text>
</g>

<g id="edge85" class="edge">
<title>IFNA1-&gt;IL1B</title>
<path fill="none" stroke="black" d="M1924.67,-1043.74C1924.67,-1026.57 1924.67,-999.46 1924.67,-976 1924.67,-976 1924.67,-976 1924.67,-800 1924.67,-715.18 1819.9,-662.89 1762.4,-640.58"></path>
<polygon fill="black" stroke="black" points="1763.52,-637.26 1752.92,-637.01 1761.05,-643.82 1763.52,-637.26"></polygon>
<text text-anchor="middle" x="1964.67" y="-840.8" font-family="Times,serif" font-size="14.00">association</text>
</g>

<g id="edge92" class="edge">
<title>IFNA1-&gt;TYK2</title>
<path fill="none" stroke="black" d="M1884.26,-1060.4C1743.41,-1058.14 1279.28,-1048.98 1216.67,-1026 1169.35,-1008.63 1171.79,-979.46 1126.67,-957 969.81,-878.92 894.34,-946.31 746.67,-852 730.46,-841.65 726.09,-836.75 718.67,-819 711.57,-802.03 680,-503.99 690.67,-489 704.86,-469.08 724.37,-487.22 742.67,-471 771.53,-445.42 799.62,-348.53 818.67,-315 841.51,-274.81 847.04,-264.29 875.67,-228 878.89,-223.92 882.49,-219.77 886.09,-215.8"></path>
<polygon fill="black" stroke="black" points="888.66,-218.19 892.94,-208.5 883.55,-213.4 888.66,-218.19"></polygon>
<text text-anchor="middle" x="737.67" y="-623.3" font-family="Times,serif" font-size="14.00">association</text>
</g>

<g id="node24" class="node">
<title>ORF6</title>
<ellipse fill="lightgrey" stroke="black" cx="1989.67" cy="-975" rx="37.09" ry="18"></ellipse>
<text text-anchor="middle" x="1989.67" y="-971.3" font-family="Times,serif" font-size="14.00">ORF6</text>
</g>

<g id="edge86" class="edge">
<title>IFNA1-&gt;ORF6</title>
<path fill="none" stroke="black" d="M1937.2,-1044.61C1946.8,-1032.07 1960.18,-1014.57 1971.03,-1000.38"></path>
<polygon fill="black" stroke="black" points="1974.1,-1002.12 1977.4,-992.05 1968.54,-997.87 1974.1,-1002.12"></polygon>
<text text-anchor="middle" x="2000.67" y="-1014.8" font-family="Times,serif" font-size="14.00">association</text>
</g>

<g id="node25" class="node">
<title>CXCL10</title>
<ellipse fill="lightgrey" stroke="black" cx="2258.67" cy="-279" rx="48.19" ry="18"></ellipse>
<text text-anchor="middle" x="2258.67" y="-275.3" font-family="Times,serif" font-size="14.00">CXCL10</text>
</g>

<g id="edge89" class="edge">
<title>IFNA1-&gt;CXCL10</title>
<path fill="none" stroke="black" d="M1964.63,-1059.22C2053.28,-1054.19 2258.67,-1036.06 2258.67,-976 2258.67,-976 2258.67,-976 2258.67,-713 2258.67,-690.77 2253.66,-684.4 2259.67,-663 2275.82,-605.56 2315.67,-600.66 2315.67,-541 2315.67,-541 2315.67,-541 2315.67,-365 2315.67,-341.03 2299.84,-318.71 2284.86,-302.97"></path>
<polygon fill="black" stroke="black" points="2287.21,-300.36 2277.65,-295.79 2282.27,-305.32 2287.21,-300.36"></polygon>
<text text-anchor="middle" x="2299.67" y="-666.8" font-family="Times,serif" font-size="14.00">association</text>
</g>

<g id="edge88" class="edge">
<title>ORF6-&gt;CD4</title>
<path fill="none" stroke="black" d="M1955.97,-967.23C1901.06,-956.45 1788.73,-935.43 1692.67,-924 1522.96,-903.81 1319.3,-893.98 1234.17,-890.51"></path>
<polygon fill="black" stroke="black" points="1234.28,-887.01 1224.15,-890.11 1234,-894.01 1234.28,-887.01"></polygon>
<text text-anchor="middle" x="1830.67" y="-927.8" font-family="Times,serif" font-size="14.00">association</text>
</g>

<g id="edge87" class="edge">
<title>ORF6-&gt;STAT1</title>
<path fill="none" stroke="black" d="M2024.5,-968.63C2089.04,-957.68 2220.67,-930.29 2220.67,-889 2220.67,-889 2220.67,-889 2220.67,-626 2220.67,-603.77 2214.12,-596.9 2221.67,-576 2253.64,-487.51 2353.67,-504.59 2353.67,-410.5 2353.67,-410.5 2353.67,-410.5 2353.67,-278 2353.67,-254.92 2353.78,-246.26 2339.67,-228 2333.88,-220.5 2325.99,-214.31 2317.83,-209.33"></path>
<polygon fill="black" stroke="black" points="2319.41,-206.2 2308.97,-204.39 2316,-212.31 2319.41,-206.2"></polygon>
<text text-anchor="middle" x="2261.67" y="-579.8" font-family="Times,serif" font-size="14.00">association</text>
</g>

<g id="edge91" class="edge">
<title>CXCL10-&gt;CXCR4</title>
<path fill="none" stroke="black" d="M2232.16,-263.84C2175.92,-234.63 2039.72,-168.11 1916.67,-141 1801.07,-115.53 1444.17,-108.4 1307.59,-106.58"></path>
<polygon fill="black" stroke="black" points="1307.42,-103.07 1297.37,-106.44 1307.33,-110.07 1307.42,-103.07"></polygon>
<text text-anchor="middle" x="2155.67" y="-188.3" font-family="Times,serif" font-size="14.00">association</text>
</g>

<g id="edge90" class="edge">
<title>CXCL10-&gt;STAT1</title>
<path fill="none" stroke="black" d="M2256.93,-260.57C2256.47,-250.82 2256.76,-238.54 2259.67,-228 2260.57,-224.76 2261.83,-221.51 2263.29,-218.36"></path>
<polygon fill="black" stroke="black" points="2266.48,-219.81 2268.1,-209.34 2260.3,-216.52 2266.48,-219.81"></polygon>
<text text-anchor="middle" x="2299.67" y="-231.8" font-family="Times,serif" font-size="14.00">association</text>
</g>
</g>
</g></svg>